<?xml version="1.0" encoding="UTF-8"?>
<svg version="1.1" xmlns="http://www.w3.org/2000/svg" width="1376" height="863">
<path d="M0 0 C454.08 0 908.16 0 1376 0 C1376 284.79 1376 569.58 1376 863 C921.92 863 467.84 863 0 863 C0 578.21 0 293.42 0 0 Z " fill="#011F3F" transform="translate(0,0)"/>
<path d="M0 0 C0.71662725 -0.00226556 1.43325449 -0.00453111 2.17159772 -0.00686532 C4.56731618 -0.01318358 6.96297775 -0.01237735 9.35870361 -0.0115509 C11.0788073 -0.01454379 12.79891032 -0.01794662 14.51901245 -0.02172852 C19.18859682 -0.03056054 23.85816287 -0.03290633 28.52775478 -0.0335443 C31.44704567 -0.03425538 34.36633191 -0.03639081 37.28562164 -0.03904152 C47.47567541 -0.04829303 57.6657161 -0.05237674 67.85577393 -0.05158997 C77.34478491 -0.05098956 86.83373897 -0.06153466 96.32273555 -0.07733363 C104.47662776 -0.09042443 112.6305014 -0.0957732 120.78440404 -0.09513456 C125.65109715 -0.09487998 130.51773969 -0.09770893 135.3844223 -0.10831261 C139.96447744 -0.11801923 144.54443395 -0.1180552 149.12449265 -0.11079597 C150.8010027 -0.10975325 152.47751898 -0.11209443 154.1540184 -0.11815643 C169.34833 -0.16951732 182.82925473 1.37459832 194.59014893 12.13371277 C202.73031891 20.85214619 206.89586685 31.50653016 206.91136169 43.35606384 C206.91362725 44.07269109 206.91589281 44.78931834 206.91822702 45.52766156 C206.92454528 47.92338002 206.92373905 50.3190416 206.9229126 52.71476746 C206.92590549 54.43487114 206.92930832 56.15497416 206.93309021 57.87507629 C206.94192224 62.54466067 206.94426802 67.21422671 206.944906 71.88381863 C206.94561707 74.80310952 206.94775251 77.72239575 206.95040321 80.64168549 C206.95965473 90.83173925 206.96373843 101.02177994 206.96295166 111.21183777 C206.96235125 120.70084875 206.97289635 130.18980281 206.98869532 139.67879939 C207.00178612 147.8326916 207.00713489 155.98656525 207.00649625 164.14046788 C207.00624167 169.00716099 207.00907062 173.87380353 207.0196743 178.74048615 C207.02938092 183.32054129 207.0294169 187.9004978 207.02215767 192.48055649 C207.02111494 194.15706654 207.02345613 195.83358282 207.02951813 197.51008224 C207.08087902 212.70439385 205.53676338 226.18531857 194.77764893 237.94621277 C185.25634726 246.80586465 174.19041491 250.24421152 161.32151794 250.27415466 C160.60388741 250.27712579 159.88625688 250.28009691 159.14687997 250.28315806 C156.7597121 250.29177915 154.37259476 250.29334767 151.9854126 250.29484558 C150.26663609 250.29947835 148.54786061 250.30450362 146.8290863 250.30989075 C142.17195349 250.32297067 137.51483506 250.32945082 132.85768676 250.33390141 C129.94474264 250.33683865 127.0318024 250.34094463 124.11886024 250.34540558 C114.99496581 250.35906755 105.8710803 250.36874113 96.74717635 250.37260747 C86.23296573 250.3770882 75.7188851 250.39464228 65.204714 250.42360806 C57.06435386 250.44525216 48.92403023 250.45531317 40.78364164 250.45664859 C35.92753517 250.45769445 31.07155113 250.46355604 26.21547508 250.4814682 C21.64602725 250.49799662 17.07679328 250.50008131 12.50732613 250.49132919 C10.83606771 250.49056143 9.16479757 250.49486697 7.49356842 250.50478745 C-7.75655081 250.58996139 -19.73894431 248.13528013 -31.40985107 237.63371277 C-40.19545282 228.36597434 -43.33370232 217.18009655 -43.36279297 204.67758179 C-43.36576409 203.95995126 -43.36873521 203.24232072 -43.37179637 202.50294381 C-43.38041746 200.11577594 -43.38198597 197.7286586 -43.38348389 195.34147644 C-43.38811666 193.62269994 -43.39314193 191.90392445 -43.39852905 190.18515015 C-43.41160897 185.52801733 -43.41808912 180.8708989 -43.42253971 176.2137506 C-43.42547696 173.30080648 -43.42958293 170.38786624 -43.43404388 167.47492409 C-43.44770585 158.35102965 -43.45737944 149.22714414 -43.46124578 140.10324019 C-43.4657265 129.58902957 -43.48328059 119.07494895 -43.51224637 108.56077784 C-43.53389047 100.4204177 -43.54395148 92.28009408 -43.54528689 84.13970548 C-43.54633276 79.28359901 -43.55219434 74.42761497 -43.57010651 69.57153893 C-43.58663492 65.00209109 -43.58871962 60.43285712 -43.5799675 55.86338997 C-43.57919973 54.19213156 -43.58350527 52.52086141 -43.59342575 50.84963226 C-43.67859969 35.59951304 -41.22391843 23.61711953 -30.72235107 11.94621277 C-22.25566067 3.8889368 -11.50913499 0.01504972 0 0 Z " fill="#0000FE" transform="translate(730.2223510742188,567.8662872314453)"/>
<path d="M0 0 C0.71662725 -0.00226556 1.43325449 -0.00453111 2.17159772 -0.00686532 C4.56731618 -0.01318358 6.96297775 -0.01237735 9.35870361 -0.0115509 C11.0788073 -0.01454379 12.79891032 -0.01794662 14.51901245 -0.02172852 C19.18859682 -0.03056054 23.85816287 -0.03290633 28.52775478 -0.0335443 C31.44704567 -0.03425538 34.36633191 -0.03639081 37.28562164 -0.03904152 C47.47567541 -0.04829303 57.6657161 -0.05237674 67.85577393 -0.05158997 C77.34478491 -0.05098956 86.83373897 -0.06153466 96.32273555 -0.07733363 C104.47662776 -0.09042443 112.6305014 -0.0957732 120.78440404 -0.09513456 C125.65109715 -0.09487998 130.51773969 -0.09770893 135.3844223 -0.10831261 C139.96447744 -0.11801923 144.54443395 -0.1180552 149.12449265 -0.11079597 C150.8010027 -0.10975325 152.47751898 -0.11209443 154.1540184 -0.11815643 C169.34833 -0.16951732 182.82925473 1.37459832 194.59014893 12.13371277 C202.73031891 20.85214619 206.89586685 31.50653016 206.91136169 43.35606384 C206.91362725 44.07269109 206.91589281 44.78931834 206.91822702 45.52766156 C206.92454528 47.92338002 206.92373905 50.3190416 206.9229126 52.71476746 C206.92590549 54.43487114 206.92930832 56.15497416 206.93309021 57.87507629 C206.94192224 62.54466067 206.94426802 67.21422671 206.944906 71.88381863 C206.94561707 74.80310952 206.94775251 77.72239575 206.95040321 80.64168549 C206.95965473 90.83173925 206.96373843 101.02177994 206.96295166 111.21183777 C206.96235125 120.70084875 206.97289635 130.18980281 206.98869532 139.67879939 C207.00178612 147.8326916 207.00713489 155.98656525 207.00649625 164.14046788 C207.00624167 169.00716099 207.00907062 173.87380353 207.0196743 178.74048615 C207.02938092 183.32054129 207.0294169 187.9004978 207.02215767 192.48055649 C207.02111494 194.15706654 207.02345613 195.83358282 207.02951813 197.51008224 C207.08087902 212.70439385 205.53676338 226.18531857 194.77764893 237.94621277 C185.25634726 246.80586465 174.19041491 250.24421152 161.32151794 250.27415466 C160.60388741 250.27712579 159.88625688 250.28009691 159.14687997 250.28315806 C156.7597121 250.29177915 154.37259476 250.29334767 151.9854126 250.29484558 C150.26663609 250.29947835 148.54786061 250.30450362 146.8290863 250.30989075 C142.17195349 250.32297067 137.51483506 250.32945082 132.85768676 250.33390141 C129.94474264 250.33683865 127.0318024 250.34094463 124.11886024 250.34540558 C114.99496581 250.35906755 105.8710803 250.36874113 96.74717635 250.37260747 C86.23296573 250.3770882 75.7188851 250.39464228 65.204714 250.42360806 C57.06435386 250.44525216 48.92403023 250.45531317 40.78364164 250.45664859 C35.92753517 250.45769445 31.07155113 250.46355604 26.21547508 250.4814682 C21.64602725 250.49799662 17.07679328 250.50008131 12.50732613 250.49132919 C10.83606771 250.49056143 9.16479757 250.49486697 7.49356842 250.50478745 C-7.75655081 250.58996139 -19.73894431 248.13528013 -31.40985107 237.63371277 C-40.19545282 228.36597434 -43.33370232 217.18009655 -43.36279297 204.67758179 C-43.36576409 203.95995126 -43.36873521 203.24232072 -43.37179637 202.50294381 C-43.38041746 200.11577594 -43.38198597 197.7286586 -43.38348389 195.34147644 C-43.38811666 193.62269994 -43.39314193 191.90392445 -43.39852905 190.18515015 C-43.41160897 185.52801733 -43.41808912 180.8708989 -43.42253971 176.2137506 C-43.42547696 173.30080648 -43.42958293 170.38786624 -43.43404388 167.47492409 C-43.44770585 158.35102965 -43.45737944 149.22714414 -43.46124578 140.10324019 C-43.4657265 129.58902957 -43.48328059 119.07494895 -43.51224637 108.56077784 C-43.53389047 100.4204177 -43.54395148 92.28009408 -43.54528689 84.13970548 C-43.54633276 79.28359901 -43.55219434 74.42761497 -43.57010651 69.57153893 C-43.58663492 65.00209109 -43.58871962 60.43285712 -43.5799675 55.86338997 C-43.57919973 54.19213156 -43.58350527 52.52086141 -43.59342575 50.84963226 C-43.67859969 35.59951304 -41.22391843 23.61711953 -30.72235107 11.94621277 C-22.25566067 3.8889368 -11.50913499 0.01504972 0 0 Z " fill="#FEFE00" transform="translate(389.22235107421875,567.8662872314453)"/>
<path d="M0 0 C0.71662725 -0.00226556 1.43325449 -0.00453111 2.17159772 -0.00686532 C4.56731618 -0.01318358 6.96297775 -0.01237735 9.35870361 -0.0115509 C11.0788073 -0.01454379 12.79891032 -0.01794662 14.51901245 -0.02172852 C19.18859682 -0.03056054 23.85816287 -0.03290633 28.52775478 -0.0335443 C31.44704567 -0.03425538 34.36633191 -0.03639081 37.28562164 -0.03904152 C47.47567541 -0.04829303 57.6657161 -0.05237674 67.85577393 -0.05158997 C77.34478491 -0.05098956 86.83373897 -0.06153466 96.32273555 -0.07733363 C104.47662776 -0.09042443 112.6305014 -0.0957732 120.78440404 -0.09513456 C125.65109715 -0.09487998 130.51773969 -0.09770893 135.3844223 -0.10831261 C139.96447744 -0.11801923 144.54443395 -0.1180552 149.12449265 -0.11079597 C150.8010027 -0.10975325 152.47751898 -0.11209443 154.1540184 -0.11815643 C169.34833 -0.16951732 182.82925473 1.37459832 194.59014893 12.13371277 C202.73031891 20.85214619 206.89586685 31.50653016 206.91136169 43.35606384 C206.91362725 44.07269109 206.91589281 44.78931834 206.91822702 45.52766156 C206.92454528 47.92338002 206.92373905 50.3190416 206.9229126 52.71476746 C206.92590549 54.43487114 206.92930832 56.15497416 206.93309021 57.87507629 C206.94192224 62.54466067 206.94426802 67.21422671 206.944906 71.88381863 C206.94561707 74.80310952 206.94775251 77.72239575 206.95040321 80.64168549 C206.95965473 90.83173925 206.96373843 101.02177994 206.96295166 111.21183777 C206.96235125 120.70084875 206.97289635 130.18980281 206.98869532 139.67879939 C207.00178612 147.8326916 207.00713489 155.98656525 207.00649625 164.14046788 C207.00624167 169.00716099 207.00907062 173.87380353 207.0196743 178.74048615 C207.02938092 183.32054129 207.0294169 187.9004978 207.02215767 192.48055649 C207.02111494 194.15706654 207.02345613 195.83358282 207.02951813 197.51008224 C207.08087902 212.70439385 205.53676338 226.18531857 194.77764893 237.94621277 C185.25634726 246.80586465 174.19041491 250.24421152 161.32151794 250.27415466 C160.60388741 250.27712579 159.88625688 250.28009691 159.14687997 250.28315806 C156.7597121 250.29177915 154.37259476 250.29334767 151.9854126 250.29484558 C150.26663609 250.29947835 148.54786061 250.30450362 146.8290863 250.30989075 C142.17195349 250.32297067 137.51483506 250.32945082 132.85768676 250.33390141 C129.94474264 250.33683865 127.0318024 250.34094463 124.11886024 250.34540558 C114.99496581 250.35906755 105.8710803 250.36874113 96.74717635 250.37260747 C86.23296573 250.3770882 75.7188851 250.39464228 65.204714 250.42360806 C57.06435386 250.44525216 48.92403023 250.45531317 40.78364164 250.45664859 C35.92753517 250.45769445 31.07155113 250.46355604 26.21547508 250.4814682 C21.64602725 250.49799662 17.07679328 250.50008131 12.50732613 250.49132919 C10.83606771 250.49056143 9.16479757 250.49486697 7.49356842 250.50478745 C-7.75655081 250.58996139 -19.73894431 248.13528013 -31.40985107 237.63371277 C-40.19545282 228.36597434 -43.33370232 217.18009655 -43.36279297 204.67758179 C-43.36576409 203.95995126 -43.36873521 203.24232072 -43.37179637 202.50294381 C-43.38041746 200.11577594 -43.38198597 197.7286586 -43.38348389 195.34147644 C-43.38811666 193.62269994 -43.39314193 191.90392445 -43.39852905 190.18515015 C-43.41160897 185.52801733 -43.41808912 180.8708989 -43.42253971 176.2137506 C-43.42547696 173.30080648 -43.42958293 170.38786624 -43.43404388 167.47492409 C-43.44770585 158.35102965 -43.45737944 149.22714414 -43.46124578 140.10324019 C-43.4657265 129.58902957 -43.48328059 119.07494895 -43.51224637 108.56077784 C-43.53389047 100.4204177 -43.54395148 92.28009408 -43.54528689 84.13970548 C-43.54633276 79.28359901 -43.55219434 74.42761497 -43.57010651 69.57153893 C-43.58663492 65.00209109 -43.58871962 60.43285712 -43.5799675 55.86338997 C-43.57919973 54.19213156 -43.58350527 52.52086141 -43.59342575 50.84963226 C-43.67859969 35.59951304 -41.22391843 23.61711953 -30.72235107 11.94621277 C-22.25566067 3.8889368 -11.50913499 0.01504972 0 0 Z " fill="#FE0000" transform="translate(730.2223510742188,225.8662872314453)"/>
<path d="M0 0 C0.71662725 -0.00226556 1.43325449 -0.00453111 2.17159772 -0.00686532 C4.56731618 -0.01318358 6.96297775 -0.01237735 9.35870361 -0.0115509 C11.0788073 -0.01454379 12.79891032 -0.01794662 14.51901245 -0.02172852 C19.18859682 -0.03056054 23.85816287 -0.03290633 28.52775478 -0.0335443 C31.44704567 -0.03425538 34.36633191 -0.03639081 37.28562164 -0.03904152 C47.47567541 -0.04829303 57.6657161 -0.05237674 67.85577393 -0.05158997 C77.34478491 -0.05098956 86.83373897 -0.06153466 96.32273555 -0.07733363 C104.47662776 -0.09042443 112.6305014 -0.0957732 120.78440404 -0.09513456 C125.65109715 -0.09487998 130.51773969 -0.09770893 135.3844223 -0.10831261 C139.96447744 -0.11801923 144.54443395 -0.1180552 149.12449265 -0.11079597 C150.8010027 -0.10975325 152.47751898 -0.11209443 154.1540184 -0.11815643 C169.34833 -0.16951732 182.82925473 1.37459832 194.59014893 12.13371277 C202.73031891 20.85214619 206.89586685 31.50653016 206.91136169 43.35606384 C206.91362725 44.07269109 206.91589281 44.78931834 206.91822702 45.52766156 C206.92454528 47.92338002 206.92373905 50.3190416 206.9229126 52.71476746 C206.92590549 54.43487114 206.92930832 56.15497416 206.93309021 57.87507629 C206.94192224 62.54466067 206.94426802 67.21422671 206.944906 71.88381863 C206.94561707 74.80310952 206.94775251 77.72239575 206.95040321 80.64168549 C206.95965473 90.83173925 206.96373843 101.02177994 206.96295166 111.21183777 C206.96235125 120.70084875 206.97289635 130.18980281 206.98869532 139.67879939 C207.00178612 147.8326916 207.00713489 155.98656525 207.00649625 164.14046788 C207.00624167 169.00716099 207.00907062 173.87380353 207.0196743 178.74048615 C207.02938092 183.32054129 207.0294169 187.9004978 207.02215767 192.48055649 C207.02111494 194.15706654 207.02345613 195.83358282 207.02951813 197.51008224 C207.08087902 212.70439385 205.53676338 226.18531857 194.77764893 237.94621277 C185.25634726 246.80586465 174.19041491 250.24421152 161.32151794 250.27415466 C160.60388741 250.27712579 159.88625688 250.28009691 159.14687997 250.28315806 C156.7597121 250.29177915 154.37259476 250.29334767 151.9854126 250.29484558 C150.26663609 250.29947835 148.54786061 250.30450362 146.8290863 250.30989075 C142.17195349 250.32297067 137.51483506 250.32945082 132.85768676 250.33390141 C129.94474264 250.33683865 127.0318024 250.34094463 124.11886024 250.34540558 C114.99496581 250.35906755 105.8710803 250.36874113 96.74717635 250.37260747 C86.23296573 250.3770882 75.7188851 250.39464228 65.204714 250.42360806 C57.06435386 250.44525216 48.92403023 250.45531317 40.78364164 250.45664859 C35.92753517 250.45769445 31.07155113 250.46355604 26.21547508 250.4814682 C21.64602725 250.49799662 17.07679328 250.50008131 12.50732613 250.49132919 C10.83606771 250.49056143 9.16479757 250.49486697 7.49356842 250.50478745 C-7.75655081 250.58996139 -19.73894431 248.13528013 -31.40985107 237.63371277 C-40.19545282 228.36597434 -43.33370232 217.18009655 -43.36279297 204.67758179 C-43.36576409 203.95995126 -43.36873521 203.24232072 -43.37179637 202.50294381 C-43.38041746 200.11577594 -43.38198597 197.7286586 -43.38348389 195.34147644 C-43.38811666 193.62269994 -43.39314193 191.90392445 -43.39852905 190.18515015 C-43.41160897 185.52801733 -43.41808912 180.8708989 -43.42253971 176.2137506 C-43.42547696 173.30080648 -43.42958293 170.38786624 -43.43404388 167.47492409 C-43.44770585 158.35102965 -43.45737944 149.22714414 -43.46124578 140.10324019 C-43.4657265 129.58902957 -43.48328059 119.07494895 -43.51224637 108.56077784 C-43.53389047 100.4204177 -43.54395148 92.28009408 -43.54528689 84.13970548 C-43.54633276 79.28359901 -43.55219434 74.42761497 -43.57010651 69.57153893 C-43.58663492 65.00209109 -43.58871962 60.43285712 -43.5799675 55.86338997 C-43.57919973 54.19213156 -43.58350527 52.52086141 -43.59342575 50.84963226 C-43.67859969 35.59951304 -41.22391843 23.61711953 -30.72235107 11.94621277 C-22.25566067 3.8889368 -11.50913499 0.01504972 0 0 Z " fill="#007F00" transform="translate(389.22235107421875,225.8662872314453)"/>
<path d="M0 0 C1.72904244 -0.00599202 3.45808222 -0.0127991 5.18711853 -0.02035522 C9.86521107 -0.03795826 14.54323035 -0.04270832 19.22135282 -0.0439868 C22.1514462 -0.04541269 25.08152122 -0.04969066 28.01161003 -0.05498123 C38.25514778 -0.07346578 48.49863363 -0.08165421 58.7421875 -0.08007812 C68.25507148 -0.07887858 77.7677279 -0.09994823 87.28055435 -0.13156545 C95.47540866 -0.1578208 103.67018909 -0.16844149 111.86508507 -0.16716731 C116.7470936 -0.1666602 121.62889993 -0.17220265 126.51086617 -0.19352341 C131.10996796 -0.2130614 135.70867797 -0.21292531 140.30779457 -0.19849014 C141.98298473 -0.19641977 143.65820042 -0.20099536 145.33334732 -0.21321106 C163.87388936 -0.33951021 179.64366396 2.8545676 193.53686523 15.90771484 C207.52869093 30.06196637 210.19612958 45.25016343 210.18286133 64.39819336 C210.18885334 66.1272358 210.19566043 67.85627558 210.20321655 69.58531189 C210.22081958 74.26340443 210.22556965 78.94142371 210.22684813 83.61954618 C210.22827402 86.54963956 210.23255199 89.47971458 210.23784256 92.40980339 C210.25632711 102.65334114 210.26451553 112.89682698 210.26293945 123.14038086 C210.26173991 132.65326484 210.28280956 142.16592126 210.31442678 151.67874771 C210.34068213 159.87360202 210.35130282 168.06838245 210.35002863 176.26327842 C210.34952153 181.14528696 210.35506398 186.02709329 210.37638474 190.90905952 C210.39592273 195.50816132 210.39578664 200.10687133 210.38135147 204.70598793 C210.3792811 206.38117809 210.38385669 208.05639378 210.39607239 209.73154068 C210.52233427 228.26661149 207.33472295 244.05376312 194.27124023 257.93505859 C179.66550111 272.39689881 163.28796081 274.59792275 143.60766602 274.56518555 C141.87198671 274.56953924 140.13630933 274.57472458 138.40063477 274.58067322 C133.71046628 274.59400364 129.02037867 274.59464856 124.33019495 274.59210992 C120.40399913 274.59103616 116.4778194 274.59593389 112.55162704 274.60071534 C103.28351047 274.6117899 94.01543443 274.61225948 84.74731445 274.60620117 C75.20994187 274.6001624 65.67271684 274.61247468 56.13536942 274.63377124 C47.92442296 274.65142675 39.71352331 274.65738238 31.50255859 274.6541335 C26.60843696 274.65232681 21.71442062 274.65489521 16.82031631 274.66884804 C12.21551659 274.68148624 7.61094578 274.67942599 3.00614929 274.66643715 C1.32444555 274.66408482 -0.35727461 274.66675736 -2.0389595 274.67506027 C-20.14418299 274.75794623 -34.37316158 271.42288101 -47.82250977 258.63427734 C-62.16686767 243.92211539 -64.41511691 227.71951055 -64.38232422 208.00585938 C-64.38667792 206.27018007 -64.39186325 204.53450269 -64.39781189 202.79882812 C-64.41114231 198.10865964 -64.41178723 193.41857203 -64.40924859 188.72838831 C-64.40817483 184.80219249 -64.41307256 180.87601276 -64.41785401 176.9498204 C-64.42892858 167.68170383 -64.42939815 158.41362779 -64.42333984 149.14550781 C-64.41730107 139.60813522 -64.42961335 130.0709102 -64.45090991 120.53356278 C-64.46856542 112.32261632 -64.47452106 104.11171667 -64.47127217 95.90075195 C-64.46946548 91.00663032 -64.47203388 86.11261398 -64.48598671 81.21850967 C-64.49862491 76.61370995 -64.49656466 72.00913914 -64.48357582 67.40434265 C-64.4812235 65.72263891 -64.48389604 64.04091875 -64.49219894 62.35923386 C-64.57511137 44.24822898 -61.23382834 30.03684776 -48.45532227 16.57568359 C-34.19991656 2.69978952 -19.17728239 -0.01328852 0 0 Z M-42.21704102 26.81005859 C-48.83670082 35.49494284 -52.22716582 44.64364965 -52.24137878 55.51287842 C-52.24364434 56.22950567 -52.2459099 56.94613291 -52.24824411 57.68447614 C-52.25456236 60.0801946 -52.25375614 62.47585617 -52.25292969 64.87158203 C-52.25592258 66.59168572 -52.25932541 68.31178874 -52.2631073 70.03189087 C-52.27193933 74.70147524 -52.27428511 79.37104128 -52.27492309 84.0406332 C-52.27563416 86.95992409 -52.2777696 89.87921033 -52.2804203 92.79850006 C-52.28967182 102.98855383 -52.29375552 113.17859452 -52.29296875 123.36865234 C-52.29236834 132.85766332 -52.30291344 142.34661738 -52.31871241 151.83561397 C-52.33180321 159.98950618 -52.33715198 168.14337982 -52.33651334 176.29728246 C-52.33625876 181.16397556 -52.33908771 186.03061811 -52.34969139 190.89730072 C-52.35939801 195.47735586 -52.35943399 200.05731237 -52.35217476 204.63737106 C-52.35113203 206.31388112 -52.35347322 207.9903974 -52.35953522 209.66689682 C-52.41089611 224.86120842 -50.86678047 238.34213315 -40.10766602 250.10302734 C-31.38923259 258.24319733 -20.73484862 262.40874527 -8.88531494 262.42424011 C-7.81037407 262.42763845 -7.81037407 262.42763845 -6.71371722 262.43110543 C-4.31799876 262.43742369 -1.92233719 262.43661746 0.47338867 262.43579102 C2.19349236 262.43878391 3.91359538 262.44218674 5.63369751 262.44596863 C10.30328188 262.45480065 14.97284793 262.45714644 19.64243984 262.45778441 C22.56173073 262.45849549 25.48101697 262.46063093 28.4003067 262.46328163 C38.59036047 262.47253314 48.78040116 262.47661685 58.97045898 262.47583008 C68.45946996 262.47522967 77.94842403 262.48577477 87.43742061 262.50157374 C95.59131282 262.51466454 103.74518646 262.52001331 111.8990891 262.51937467 C116.76578221 262.51912009 121.63242475 262.52194904 126.49910736 262.53255272 C131.0791625 262.54225934 135.65911901 262.54229532 140.2391777 262.53503609 C141.91568776 262.53399336 143.59220404 262.53633455 145.26870346 262.54239655 C160.46301506 262.59375743 173.94393979 261.04964179 185.70483398 250.29052734 C194.56448587 240.76922568 198.00283273 229.70329333 198.03277588 216.83439636 C198.035747 216.11676583 198.03871812 215.3991353 198.04177928 214.65975839 C198.05040037 212.27259052 198.05196888 209.88547318 198.0534668 207.49829102 C198.05809957 205.77951451 198.06312484 204.06073903 198.06851196 202.34196472 C198.08159188 197.68483191 198.08807203 193.02771348 198.09252262 188.37056518 C198.09545987 185.45762106 198.09956585 182.54468082 198.10402679 179.63173866 C198.11768876 170.50784423 198.12736235 161.38395872 198.13122869 152.26005477 C198.13570941 141.74584414 198.1532635 131.23176352 198.18222928 120.71759242 C198.20387338 112.57723228 198.21393439 104.43690865 198.2152698 96.29652005 C198.21631567 91.44041359 198.22217725 86.58442955 198.24008942 81.7283535 C198.25661783 77.15890567 198.25870253 72.58967169 198.24995041 68.02020454 C198.24918264 66.34894613 198.25348818 64.67767598 198.26340866 63.00644684 C198.3485826 47.75632761 195.89390134 35.77393411 185.39233398 24.10302734 C176.12459556 15.3174256 164.93871777 12.1791761 152.436203 12.15008545 C151.71857247 12.14711433 151.00094194 12.1441432 150.26156503 12.14108205 C147.87439716 12.13246096 145.48727982 12.13089244 143.10009766 12.12939453 C141.38132115 12.12476176 139.66254567 12.11973649 137.94377136 12.11434937 C133.28663855 12.10126945 128.62952012 12.09478929 123.97237182 12.09033871 C121.0594277 12.08740146 118.14648746 12.08329548 115.2335453 12.07883453 C106.10965087 12.06517257 96.98576536 12.05549898 87.86186141 12.05163264 C77.34765079 12.04715191 66.83357016 12.02959783 56.31939906 12.00063205 C48.17903892 11.97898795 40.03871529 11.96892694 31.89832669 11.96759152 C27.04222023 11.96654566 22.18623619 11.96068408 17.33016014 11.94277191 C12.76071231 11.9262435 8.19147833 11.9241588 3.62201118 11.93291092 C1.95075277 11.93367868 0.27948262 11.92937314 -1.39174652 11.91945267 C-17.4736898 11.82963288 -30.69775797 14.70544612 -42.21704102 26.81005859 Z " fill="#000001" transform="translate(739.107666015625,555.70947265625)"/>
<path d="M0 0 C1.72904244 -0.00599202 3.45808222 -0.0127991 5.18711853 -0.02035522 C9.86521107 -0.03795826 14.54323035 -0.04270832 19.22135282 -0.0439868 C22.1514462 -0.04541269 25.08152122 -0.04969066 28.01161003 -0.05498123 C38.25514778 -0.07346578 48.49863363 -0.08165421 58.7421875 -0.08007812 C68.25507148 -0.07887858 77.7677279 -0.09994823 87.28055435 -0.13156545 C95.47540866 -0.1578208 103.67018909 -0.16844149 111.86508507 -0.16716731 C116.7470936 -0.1666602 121.62889993 -0.17220265 126.51086617 -0.19352341 C131.10996796 -0.2130614 135.70867797 -0.21292531 140.30779457 -0.19849014 C141.98298473 -0.19641977 143.65820042 -0.20099536 145.33334732 -0.21321106 C163.87388936 -0.33951021 179.64366396 2.8545676 193.53686523 15.90771484 C207.52869093 30.06196637 210.19612958 45.25016343 210.18286133 64.39819336 C210.18885334 66.1272358 210.19566043 67.85627558 210.20321655 69.58531189 C210.22081958 74.26340443 210.22556965 78.94142371 210.22684813 83.61954618 C210.22827402 86.54963956 210.23255199 89.47971458 210.23784256 92.40980339 C210.25632711 102.65334114 210.26451553 112.89682698 210.26293945 123.14038086 C210.26173991 132.65326484 210.28280956 142.16592126 210.31442678 151.67874771 C210.34068213 159.87360202 210.35130282 168.06838245 210.35002863 176.26327842 C210.34952153 181.14528696 210.35506398 186.02709329 210.37638474 190.90905952 C210.39592273 195.50816132 210.39578664 200.10687133 210.38135147 204.70598793 C210.3792811 206.38117809 210.38385669 208.05639378 210.39607239 209.73154068 C210.52233427 228.26661149 207.33472295 244.05376312 194.27124023 257.93505859 C179.66550111 272.39689881 163.28796081 274.59792275 143.60766602 274.56518555 C141.87198671 274.56953924 140.13630933 274.57472458 138.40063477 274.58067322 C133.71046628 274.59400364 129.02037867 274.59464856 124.33019495 274.59210992 C120.40399913 274.59103616 116.4778194 274.59593389 112.55162704 274.60071534 C103.28351047 274.6117899 94.01543443 274.61225948 84.74731445 274.60620117 C75.20994187 274.6001624 65.67271684 274.61247468 56.13536942 274.63377124 C47.92442296 274.65142675 39.71352331 274.65738238 31.50255859 274.6541335 C26.60843696 274.65232681 21.71442062 274.65489521 16.82031631 274.66884804 C12.21551659 274.68148624 7.61094578 274.67942599 3.00614929 274.66643715 C1.32444555 274.66408482 -0.35727461 274.66675736 -2.0389595 274.67506027 C-20.14418299 274.75794623 -34.37316158 271.42288101 -47.82250977 258.63427734 C-62.16686767 243.92211539 -64.41511691 227.71951055 -64.38232422 208.00585938 C-64.38667792 206.27018007 -64.39186325 204.53450269 -64.39781189 202.79882812 C-64.41114231 198.10865964 -64.41178723 193.41857203 -64.40924859 188.72838831 C-64.40817483 184.80219249 -64.41307256 180.87601276 -64.41785401 176.9498204 C-64.42892858 167.68170383 -64.42939815 158.41362779 -64.42333984 149.14550781 C-64.41730107 139.60813522 -64.42961335 130.0709102 -64.45090991 120.53356278 C-64.46856542 112.32261632 -64.47452106 104.11171667 -64.47127217 95.90075195 C-64.46946548 91.00663032 -64.47203388 86.11261398 -64.48598671 81.21850967 C-64.49862491 76.61370995 -64.49656466 72.00913914 -64.48357582 67.40434265 C-64.4812235 65.72263891 -64.48389604 64.04091875 -64.49219894 62.35923386 C-64.57511137 44.24822898 -61.23382834 30.03684776 -48.45532227 16.57568359 C-34.19991656 2.69978952 -19.17728239 -0.01328852 0 0 Z M-42.21704102 26.81005859 C-48.83670082 35.49494284 -52.22716582 44.64364965 -52.24137878 55.51287842 C-52.24364434 56.22950567 -52.2459099 56.94613291 -52.24824411 57.68447614 C-52.25456236 60.0801946 -52.25375614 62.47585617 -52.25292969 64.87158203 C-52.25592258 66.59168572 -52.25932541 68.31178874 -52.2631073 70.03189087 C-52.27193933 74.70147524 -52.27428511 79.37104128 -52.27492309 84.0406332 C-52.27563416 86.95992409 -52.2777696 89.87921033 -52.2804203 92.79850006 C-52.28967182 102.98855383 -52.29375552 113.17859452 -52.29296875 123.36865234 C-52.29236834 132.85766332 -52.30291344 142.34661738 -52.31871241 151.83561397 C-52.33180321 159.98950618 -52.33715198 168.14337982 -52.33651334 176.29728246 C-52.33625876 181.16397556 -52.33908771 186.03061811 -52.34969139 190.89730072 C-52.35939801 195.47735586 -52.35943399 200.05731237 -52.35217476 204.63737106 C-52.35113203 206.31388112 -52.35347322 207.9903974 -52.35953522 209.66689682 C-52.41089611 224.86120842 -50.86678047 238.34213315 -40.10766602 250.10302734 C-31.38923259 258.24319733 -20.73484862 262.40874527 -8.88531494 262.42424011 C-7.81037407 262.42763845 -7.81037407 262.42763845 -6.71371722 262.43110543 C-4.31799876 262.43742369 -1.92233719 262.43661746 0.47338867 262.43579102 C2.19349236 262.43878391 3.91359538 262.44218674 5.63369751 262.44596863 C10.30328188 262.45480065 14.97284793 262.45714644 19.64243984 262.45778441 C22.56173073 262.45849549 25.48101697 262.46063093 28.4003067 262.46328163 C38.59036047 262.47253314 48.78040116 262.47661685 58.97045898 262.47583008 C68.45946996 262.47522967 77.94842403 262.48577477 87.43742061 262.50157374 C95.59131282 262.51466454 103.74518646 262.52001331 111.8990891 262.51937467 C116.76578221 262.51912009 121.63242475 262.52194904 126.49910736 262.53255272 C131.0791625 262.54225934 135.65911901 262.54229532 140.2391777 262.53503609 C141.91568776 262.53399336 143.59220404 262.53633455 145.26870346 262.54239655 C160.46301506 262.59375743 173.94393979 261.04964179 185.70483398 250.29052734 C194.56448587 240.76922568 198.00283273 229.70329333 198.03277588 216.83439636 C198.035747 216.11676583 198.03871812 215.3991353 198.04177928 214.65975839 C198.05040037 212.27259052 198.05196888 209.88547318 198.0534668 207.49829102 C198.05809957 205.77951451 198.06312484 204.06073903 198.06851196 202.34196472 C198.08159188 197.68483191 198.08807203 193.02771348 198.09252262 188.37056518 C198.09545987 185.45762106 198.09956585 182.54468082 198.10402679 179.63173866 C198.11768876 170.50784423 198.12736235 161.38395872 198.13122869 152.26005477 C198.13570941 141.74584414 198.1532635 131.23176352 198.18222928 120.71759242 C198.20387338 112.57723228 198.21393439 104.43690865 198.2152698 96.29652005 C198.21631567 91.44041359 198.22217725 86.58442955 198.24008942 81.7283535 C198.25661783 77.15890567 198.25870253 72.58967169 198.24995041 68.02020454 C198.24918264 66.34894613 198.25348818 64.67767598 198.26340866 63.00644684 C198.3485826 47.75632761 195.89390134 35.77393411 185.39233398 24.10302734 C176.12459556 15.3174256 164.93871777 12.1791761 152.436203 12.15008545 C151.71857247 12.14711433 151.00094194 12.1441432 150.26156503 12.14108205 C147.87439716 12.13246096 145.48727982 12.13089244 143.10009766 12.12939453 C141.38132115 12.12476176 139.66254567 12.11973649 137.94377136 12.11434937 C133.28663855 12.10126945 128.62952012 12.09478929 123.97237182 12.09033871 C121.0594277 12.08740146 118.14648746 12.08329548 115.2335453 12.07883453 C106.10965087 12.06517257 96.98576536 12.05549898 87.86186141 12.05163264 C77.34765079 12.04715191 66.83357016 12.02959783 56.31939906 12.00063205 C48.17903892 11.97898795 40.03871529 11.96892694 31.89832669 11.96759152 C27.04222023 11.96654566 22.18623619 11.96068408 17.33016014 11.94277191 C12.76071231 11.9262435 8.19147833 11.9241588 3.62201118 11.93291092 C1.95075277 11.93367868 0.27948262 11.92937314 -1.39174652 11.91945267 C-17.4736898 11.82963288 -30.69775797 14.70544612 -42.21704102 26.81005859 Z " fill="#000000" transform="translate(398.107666015625,555.70947265625)"/>
<path d="M0 0 C1.72904244 -0.00599202 3.45808222 -0.0127991 5.18711853 -0.02035522 C9.86521107 -0.03795826 14.54323035 -0.04270832 19.22135282 -0.0439868 C22.1514462 -0.04541269 25.08152122 -0.04969066 28.01161003 -0.05498123 C38.25514778 -0.07346578 48.49863363 -0.08165421 58.7421875 -0.08007812 C68.25507148 -0.07887858 77.7677279 -0.09994823 87.28055435 -0.13156545 C95.47540866 -0.1578208 103.67018909 -0.16844149 111.86508507 -0.16716731 C116.7470936 -0.1666602 121.62889993 -0.17220265 126.51086617 -0.19352341 C131.10996796 -0.2130614 135.70867797 -0.21292531 140.30779457 -0.19849014 C141.98298473 -0.19641977 143.65820042 -0.20099536 145.33334732 -0.21321106 C163.87388936 -0.33951021 179.64366396 2.8545676 193.53686523 15.90771484 C207.52869093 30.06196637 210.19612958 45.25016343 210.18286133 64.39819336 C210.18885334 66.1272358 210.19566043 67.85627558 210.20321655 69.58531189 C210.22081958 74.26340443 210.22556965 78.94142371 210.22684813 83.61954618 C210.22827402 86.54963956 210.23255199 89.47971458 210.23784256 92.40980339 C210.25632711 102.65334114 210.26451553 112.89682698 210.26293945 123.14038086 C210.26173991 132.65326484 210.28280956 142.16592126 210.31442678 151.67874771 C210.34068213 159.87360202 210.35130282 168.06838245 210.35002863 176.26327842 C210.34952153 181.14528696 210.35506398 186.02709329 210.37638474 190.90905952 C210.39592273 195.50816132 210.39578664 200.10687133 210.38135147 204.70598793 C210.3792811 206.38117809 210.38385669 208.05639378 210.39607239 209.73154068 C210.52233427 228.26661149 207.33472295 244.05376312 194.27124023 257.93505859 C179.66550111 272.39689881 163.28796081 274.59792275 143.60766602 274.56518555 C141.87198671 274.56953924 140.13630933 274.57472458 138.40063477 274.58067322 C133.71046628 274.59400364 129.02037867 274.59464856 124.33019495 274.59210992 C120.40399913 274.59103616 116.4778194 274.59593389 112.55162704 274.60071534 C103.28351047 274.6117899 94.01543443 274.61225948 84.74731445 274.60620117 C75.20994187 274.6001624 65.67271684 274.61247468 56.13536942 274.63377124 C47.92442296 274.65142675 39.71352331 274.65738238 31.50255859 274.6541335 C26.60843696 274.65232681 21.71442062 274.65489521 16.82031631 274.66884804 C12.21551659 274.68148624 7.61094578 274.67942599 3.00614929 274.66643715 C1.32444555 274.66408482 -0.35727461 274.66675736 -2.0389595 274.67506027 C-20.14418299 274.75794623 -34.37316158 271.42288101 -47.82250977 258.63427734 C-62.16686767 243.92211539 -64.41511691 227.71951055 -64.38232422 208.00585938 C-64.38667792 206.27018007 -64.39186325 204.53450269 -64.39781189 202.79882812 C-64.41114231 198.10865964 -64.41178723 193.41857203 -64.40924859 188.72838831 C-64.40817483 184.80219249 -64.41307256 180.87601276 -64.41785401 176.9498204 C-64.42892858 167.68170383 -64.42939815 158.41362779 -64.42333984 149.14550781 C-64.41730107 139.60813522 -64.42961335 130.0709102 -64.45090991 120.53356278 C-64.46856542 112.32261632 -64.47452106 104.11171667 -64.47127217 95.90075195 C-64.46946548 91.00663032 -64.47203388 86.11261398 -64.48598671 81.21850967 C-64.49862491 76.61370995 -64.49656466 72.00913914 -64.48357582 67.40434265 C-64.4812235 65.72263891 -64.48389604 64.04091875 -64.49219894 62.35923386 C-64.57511137 44.24822898 -61.23382834 30.03684776 -48.45532227 16.57568359 C-34.19991656 2.69978952 -19.17728239 -0.01328852 0 0 Z M-42.21704102 26.81005859 C-48.83670082 35.49494284 -52.22716582 44.64364965 -52.24137878 55.51287842 C-52.24364434 56.22950567 -52.2459099 56.94613291 -52.24824411 57.68447614 C-52.25456236 60.0801946 -52.25375614 62.47585617 -52.25292969 64.87158203 C-52.25592258 66.59168572 -52.25932541 68.31178874 -52.2631073 70.03189087 C-52.27193933 74.70147524 -52.27428511 79.37104128 -52.27492309 84.0406332 C-52.27563416 86.95992409 -52.2777696 89.87921033 -52.2804203 92.79850006 C-52.28967182 102.98855383 -52.29375552 113.17859452 -52.29296875 123.36865234 C-52.29236834 132.85766332 -52.30291344 142.34661738 -52.31871241 151.83561397 C-52.33180321 159.98950618 -52.33715198 168.14337982 -52.33651334 176.29728246 C-52.33625876 181.16397556 -52.33908771 186.03061811 -52.34969139 190.89730072 C-52.35939801 195.47735586 -52.35943399 200.05731237 -52.35217476 204.63737106 C-52.35113203 206.31388112 -52.35347322 207.9903974 -52.35953522 209.66689682 C-52.41089611 224.86120842 -50.86678047 238.34213315 -40.10766602 250.10302734 C-31.38923259 258.24319733 -20.73484862 262.40874527 -8.88531494 262.42424011 C-7.81037407 262.42763845 -7.81037407 262.42763845 -6.71371722 262.43110543 C-4.31799876 262.43742369 -1.92233719 262.43661746 0.47338867 262.43579102 C2.19349236 262.43878391 3.91359538 262.44218674 5.63369751 262.44596863 C10.30328188 262.45480065 14.97284793 262.45714644 19.64243984 262.45778441 C22.56173073 262.45849549 25.48101697 262.46063093 28.4003067 262.46328163 C38.59036047 262.47253314 48.78040116 262.47661685 58.97045898 262.47583008 C68.45946996 262.47522967 77.94842403 262.48577477 87.43742061 262.50157374 C95.59131282 262.51466454 103.74518646 262.52001331 111.8990891 262.51937467 C116.76578221 262.51912009 121.63242475 262.52194904 126.49910736 262.53255272 C131.0791625 262.54225934 135.65911901 262.54229532 140.2391777 262.53503609 C141.91568776 262.53399336 143.59220404 262.53633455 145.26870346 262.54239655 C160.46301506 262.59375743 173.94393979 261.04964179 185.70483398 250.29052734 C194.56448587 240.76922568 198.00283273 229.70329333 198.03277588 216.83439636 C198.035747 216.11676583 198.03871812 215.3991353 198.04177928 214.65975839 C198.05040037 212.27259052 198.05196888 209.88547318 198.0534668 207.49829102 C198.05809957 205.77951451 198.06312484 204.06073903 198.06851196 202.34196472 C198.08159188 197.68483191 198.08807203 193.02771348 198.09252262 188.37056518 C198.09545987 185.45762106 198.09956585 182.54468082 198.10402679 179.63173866 C198.11768876 170.50784423 198.12736235 161.38395872 198.13122869 152.26005477 C198.13570941 141.74584414 198.1532635 131.23176352 198.18222928 120.71759242 C198.20387338 112.57723228 198.21393439 104.43690865 198.2152698 96.29652005 C198.21631567 91.44041359 198.22217725 86.58442955 198.24008942 81.7283535 C198.25661783 77.15890567 198.25870253 72.58967169 198.24995041 68.02020454 C198.24918264 66.34894613 198.25348818 64.67767598 198.26340866 63.00644684 C198.3485826 47.75632761 195.89390134 35.77393411 185.39233398 24.10302734 C176.12459556 15.3174256 164.93871777 12.1791761 152.436203 12.15008545 C151.71857247 12.14711433 151.00094194 12.1441432 150.26156503 12.14108205 C147.87439716 12.13246096 145.48727982 12.13089244 143.10009766 12.12939453 C141.38132115 12.12476176 139.66254567 12.11973649 137.94377136 12.11434937 C133.28663855 12.10126945 128.62952012 12.09478929 123.97237182 12.09033871 C121.0594277 12.08740146 118.14648746 12.08329548 115.2335453 12.07883453 C106.10965087 12.06517257 96.98576536 12.05549898 87.86186141 12.05163264 C77.34765079 12.04715191 66.83357016 12.02959783 56.31939906 12.00063205 C48.17903892 11.97898795 40.03871529 11.96892694 31.89832669 11.96759152 C27.04222023 11.96654566 22.18623619 11.96068408 17.33016014 11.94277191 C12.76071231 11.9262435 8.19147833 11.9241588 3.62201118 11.93291092 C1.95075277 11.93367868 0.27948262 11.92937314 -1.39174652 11.91945267 C-17.4736898 11.82963288 -30.69775797 14.70544612 -42.21704102 26.81005859 Z " fill="#000000" transform="translate(739.107666015625,213.70947265625)"/>
<path d="M0 0 C1.72904244 -0.00599202 3.45808222 -0.0127991 5.18711853 -0.02035522 C9.86521107 -0.03795826 14.54323035 -0.04270832 19.22135282 -0.0439868 C22.1514462 -0.04541269 25.08152122 -0.04969066 28.01161003 -0.05498123 C38.25514778 -0.07346578 48.49863363 -0.08165421 58.7421875 -0.08007812 C68.25507148 -0.07887858 77.7677279 -0.09994823 87.28055435 -0.13156545 C95.47540866 -0.1578208 103.67018909 -0.16844149 111.86508507 -0.16716731 C116.7470936 -0.1666602 121.62889993 -0.17220265 126.51086617 -0.19352341 C131.10996796 -0.2130614 135.70867797 -0.21292531 140.30779457 -0.19849014 C141.98298473 -0.19641977 143.65820042 -0.20099536 145.33334732 -0.21321106 C163.87388936 -0.33951021 179.64366396 2.8545676 193.53686523 15.90771484 C207.52869093 30.06196637 210.19612958 45.25016343 210.18286133 64.39819336 C210.18885334 66.1272358 210.19566043 67.85627558 210.20321655 69.58531189 C210.22081958 74.26340443 210.22556965 78.94142371 210.22684813 83.61954618 C210.22827402 86.54963956 210.23255199 89.47971458 210.23784256 92.40980339 C210.25632711 102.65334114 210.26451553 112.89682698 210.26293945 123.14038086 C210.26173991 132.65326484 210.28280956 142.16592126 210.31442678 151.67874771 C210.34068213 159.87360202 210.35130282 168.06838245 210.35002863 176.26327842 C210.34952153 181.14528696 210.35506398 186.02709329 210.37638474 190.90905952 C210.39592273 195.50816132 210.39578664 200.10687133 210.38135147 204.70598793 C210.3792811 206.38117809 210.38385669 208.05639378 210.39607239 209.73154068 C210.52233427 228.26661149 207.33472295 244.05376312 194.27124023 257.93505859 C179.66550111 272.39689881 163.28796081 274.59792275 143.60766602 274.56518555 C141.87198671 274.56953924 140.13630933 274.57472458 138.40063477 274.58067322 C133.71046628 274.59400364 129.02037867 274.59464856 124.33019495 274.59210992 C120.40399913 274.59103616 116.4778194 274.59593389 112.55162704 274.60071534 C103.28351047 274.6117899 94.01543443 274.61225948 84.74731445 274.60620117 C75.20994187 274.6001624 65.67271684 274.61247468 56.13536942 274.63377124 C47.92442296 274.65142675 39.71352331 274.65738238 31.50255859 274.6541335 C26.60843696 274.65232681 21.71442062 274.65489521 16.82031631 274.66884804 C12.21551659 274.68148624 7.61094578 274.67942599 3.00614929 274.66643715 C1.32444555 274.66408482 -0.35727461 274.66675736 -2.0389595 274.67506027 C-20.14418299 274.75794623 -34.37316158 271.42288101 -47.82250977 258.63427734 C-62.16686767 243.92211539 -64.41511691 227.71951055 -64.38232422 208.00585938 C-64.38667792 206.27018007 -64.39186325 204.53450269 -64.39781189 202.79882812 C-64.41114231 198.10865964 -64.41178723 193.41857203 -64.40924859 188.72838831 C-64.40817483 184.80219249 -64.41307256 180.87601276 -64.41785401 176.9498204 C-64.42892858 167.68170383 -64.42939815 158.41362779 -64.42333984 149.14550781 C-64.41730107 139.60813522 -64.42961335 130.0709102 -64.45090991 120.53356278 C-64.46856542 112.32261632 -64.47452106 104.11171667 -64.47127217 95.90075195 C-64.46946548 91.00663032 -64.47203388 86.11261398 -64.48598671 81.21850967 C-64.49862491 76.61370995 -64.49656466 72.00913914 -64.48357582 67.40434265 C-64.4812235 65.72263891 -64.48389604 64.04091875 -64.49219894 62.35923386 C-64.57511137 44.24822898 -61.23382834 30.03684776 -48.45532227 16.57568359 C-34.19991656 2.69978952 -19.17728239 -0.01328852 0 0 Z M-42.21704102 26.81005859 C-48.83670082 35.49494284 -52.22716582 44.64364965 -52.24137878 55.51287842 C-52.24364434 56.22950567 -52.2459099 56.94613291 -52.24824411 57.68447614 C-52.25456236 60.0801946 -52.25375614 62.47585617 -52.25292969 64.87158203 C-52.25592258 66.59168572 -52.25932541 68.31178874 -52.2631073 70.03189087 C-52.27193933 74.70147524 -52.27428511 79.37104128 -52.27492309 84.0406332 C-52.27563416 86.95992409 -52.2777696 89.87921033 -52.2804203 92.79850006 C-52.28967182 102.98855383 -52.29375552 113.17859452 -52.29296875 123.36865234 C-52.29236834 132.85766332 -52.30291344 142.34661738 -52.31871241 151.83561397 C-52.33180321 159.98950618 -52.33715198 168.14337982 -52.33651334 176.29728246 C-52.33625876 181.16397556 -52.33908771 186.03061811 -52.34969139 190.89730072 C-52.35939801 195.47735586 -52.35943399 200.05731237 -52.35217476 204.63737106 C-52.35113203 206.31388112 -52.35347322 207.9903974 -52.35953522 209.66689682 C-52.41089611 224.86120842 -50.86678047 238.34213315 -40.10766602 250.10302734 C-31.38923259 258.24319733 -20.73484862 262.40874527 -8.88531494 262.42424011 C-7.81037407 262.42763845 -7.81037407 262.42763845 -6.71371722 262.43110543 C-4.31799876 262.43742369 -1.92233719 262.43661746 0.47338867 262.43579102 C2.19349236 262.43878391 3.91359538 262.44218674 5.63369751 262.44596863 C10.30328188 262.45480065 14.97284793 262.45714644 19.64243984 262.45778441 C22.56173073 262.45849549 25.48101697 262.46063093 28.4003067 262.46328163 C38.59036047 262.47253314 48.78040116 262.47661685 58.97045898 262.47583008 C68.45946996 262.47522967 77.94842403 262.48577477 87.43742061 262.50157374 C95.59131282 262.51466454 103.74518646 262.52001331 111.8990891 262.51937467 C116.76578221 262.51912009 121.63242475 262.52194904 126.49910736 262.53255272 C131.0791625 262.54225934 135.65911901 262.54229532 140.2391777 262.53503609 C141.91568776 262.53399336 143.59220404 262.53633455 145.26870346 262.54239655 C160.46301506 262.59375743 173.94393979 261.04964179 185.70483398 250.29052734 C194.56448587 240.76922568 198.00283273 229.70329333 198.03277588 216.83439636 C198.035747 216.11676583 198.03871812 215.3991353 198.04177928 214.65975839 C198.05040037 212.27259052 198.05196888 209.88547318 198.0534668 207.49829102 C198.05809957 205.77951451 198.06312484 204.06073903 198.06851196 202.34196472 C198.08159188 197.68483191 198.08807203 193.02771348 198.09252262 188.37056518 C198.09545987 185.45762106 198.09956585 182.54468082 198.10402679 179.63173866 C198.11768876 170.50784423 198.12736235 161.38395872 198.13122869 152.26005477 C198.13570941 141.74584414 198.1532635 131.23176352 198.18222928 120.71759242 C198.20387338 112.57723228 198.21393439 104.43690865 198.2152698 96.29652005 C198.21631567 91.44041359 198.22217725 86.58442955 198.24008942 81.7283535 C198.25661783 77.15890567 198.25870253 72.58967169 198.24995041 68.02020454 C198.24918264 66.34894613 198.25348818 64.67767598 198.26340866 63.00644684 C198.3485826 47.75632761 195.89390134 35.77393411 185.39233398 24.10302734 C176.12459556 15.3174256 164.93871777 12.1791761 152.436203 12.15008545 C151.71857247 12.14711433 151.00094194 12.1441432 150.26156503 12.14108205 C147.87439716 12.13246096 145.48727982 12.13089244 143.10009766 12.12939453 C141.38132115 12.12476176 139.66254567 12.11973649 137.94377136 12.11434937 C133.28663855 12.10126945 128.62952012 12.09478929 123.97237182 12.09033871 C121.0594277 12.08740146 118.14648746 12.08329548 115.2335453 12.07883453 C106.10965087 12.06517257 96.98576536 12.05549898 87.86186141 12.05163264 C77.34765079 12.04715191 66.83357016 12.02959783 56.31939906 12.00063205 C48.17903892 11.97898795 40.03871529 11.96892694 31.89832669 11.96759152 C27.04222023 11.96654566 22.18623619 11.96068408 17.33016014 11.94277191 C12.76071231 11.9262435 8.19147833 11.9241588 3.62201118 11.93291092 C1.95075277 11.93367868 0.27948262 11.92937314 -1.39174652 11.91945267 C-17.4736898 11.82963288 -30.69775797 14.70544612 -42.21704102 26.81005859 Z " fill="#000000" transform="translate(398.107666015625,213.70947265625)"/>
<path d="M0 0 C8.58 0 17.16 0 26 0 C26 2.31 26 4.62 26 7 C28.31 7 30.62 7 33 7 C33 9.64 33 12.28 33 15 C35.64 15 38.28 15 41 15 C41 28.2 41 41.4 41 55 C34.73 55 28.46 55 22 55 C22 50.05 22 45.1 22 40 C15.73 40 9.46 40 3 40 C3 44.95 3 49.9 3 55 C-2.94 55 -8.88 55 -15 55 C-15 41.8 -15 28.6 -15 15 C-12.36 15 -9.72 15 -7 15 C-7 12.36 -7 9.72 -7 7 C-4.69 7 -2.38 7 0 7 C0 4.69 0 2.38 0 0 Z " fill="#F3E9B9" transform="translate(415,28)"/>
<path d="M0 0 C15.84 0 31.68 0 48 0 C48 2.31 48 4.62 48 7 C50.31 7 52.62 7 55 7 C55 15.25 55 23.5 55 32 C52.69 32 50.38 32 48 32 C48 34.64 48 37.28 48 40 C38.1 40 28.2 40 18 40 C18 44.95 18 49.9 18 55 C12.06 55 6.12 55 0 55 C0 36.85 0 18.7 0 0 Z " fill="#F7ECBB" transform="translate(40,28)"/>
<path d="M0 0 C5.94 0 11.88 0 18 0 C18 7.26 18 14.52 18 22 C19.65 22 21.3 22 23 22 C23 19.69 23 17.38 23 15 C25.31 15 27.62 15 30 15 C30 12.36 30 9.72 30 7 C32.31 7 34.62 7 37 7 C37 4.69 37 2.38 37 0 C42.94 0 48.88 0 55 0 C55 3.3 55 6.6 55 10 C52.69 10 50.38 10 48 10 C48 12.31 48 14.62 48 17 C45.36 17 42.72 17 40 17 C40 19.64 40 22.28 40 25 C37.69 25 35.38 25 33 25 C33 26.65 33 28.3 33 30 C35.64 30 38.28 30 41 30 C41 32.31 41 34.62 41 37 C43.31 37 45.62 37 48 37 C48 39.64 48 42.28 48 45 C50.64 45 53.28 45 56 45 C56 48.3 56 51.6 56 55 C47.42 55 38.84 55 30 55 C30 52.36 30 49.72 30 47 C27.69 47 25.38 47 23 47 C23 44.69 23 42.38 23 40 C21.35 40 19.7 40 18 40 C18 44.95 18 49.9 18 55 C12.06 55 6.12 55 0 55 C0 36.85 0 18.7 0 0 Z " fill="#F5EABA" transform="translate(520,28)"/>
<path d="M0 0 C13.53 0 27.06 0 41 0 C41 2.31 41 4.62 41 7 C43.31 7 45.62 7 48 7 C48 10.3 48 13.6 48 17 C42.06 17 36.12 17 30 17 C30 14.69 30 12.38 30 10 C23.73 10 17.46 10 11 10 C11 13.96 11 17.92 11 22 C20.9 22 30.8 22 41 22 C41 24.64 41 27.28 41 30 C43.31 30 45.62 30 48 30 C48 35.61 48 41.22 48 47 C45.69 47 43.38 47 41 47 C41 49.64 41 52.28 41 55 C27.47 55 13.94 55 0 55 C0 52.36 0 49.72 0 47 C-2.31 47 -4.62 47 -7 47 C-7 43.7 -7 40.4 -7 37 C-1.06 37 4.88 37 11 37 C11 39.64 11 42.28 11 45 C17.6 45 24.2 45 31 45 C31 40.71 31 36.42 31 32 C20.77 32 10.54 32 0 32 C0 29.69 0 27.38 0 25 C-2.31 25 -4.62 25 -7 25 C-7 19.06 -7 13.12 -7 7 C-4.69 7 -2.38 7 0 7 C0 4.69 0 2.38 0 0 Z " fill="#F4EABA" transform="translate(947,28)"/>
<path d="M0 0 C13.53 0 27.06 0 41 0 C41 2.31 41 4.62 41 7 C43.31 7 45.62 7 48 7 C48 15.25 48 23.5 48 32 C45.69 32 43.38 32 41 32 C41 34.64 41 37.28 41 40 C27.47 40 13.94 40 0 40 C0 37.36 0 34.72 0 32 C-2.31 32 -4.62 32 -7 32 C-7 23.75 -7 15.5 -7 7 C-4.69 7 -2.38 7 0 7 C0 4.69 0 2.38 0 0 Z " fill="#F6EBBB" transform="translate(827,43)"/>
<path d="M0 0 C13.53 0 27.06 0 41 0 C41 2.31 41 4.62 41 7 C43.64 7 46.28 7 49 7 C49 17.89 49 28.78 49 40 C32.83 40 16.66 40 0 40 C0 37.36 0 34.72 0 32 C-2.31 32 -4.62 32 -7 32 C-7 28.7 -7 25.4 -7 22 C-4.69 22 -2.38 22 0 22 C0 19.69 0 17.38 0 15 C9.9 15 19.8 15 30 15 C30 13.35 30 11.7 30 10 C20.1 10 10.2 10 0 10 C0 6.7 0 3.4 0 0 Z " fill="#F2E8B9" transform="translate(1067,43)"/>
<path d="M0 0 C13.53 0 27.06 0 41 0 C41 2.31 41 4.62 41 7 C43.64 7 46.28 7 49 7 C49 12.94 49 18.88 49 25 C36.46 25 23.92 25 11 25 C11 26.65 11 28.3 11 30 C20.9 30 30.8 30 41 30 C41 33.3 41 36.6 41 40 C27.47 40 13.94 40 0 40 C0 37.36 0 34.72 0 32 C-2.31 32 -4.62 32 -7 32 C-7 23.75 -7 15.5 -7 7 C-4.69 7 -2.38 7 0 7 C0 4.69 0 2.38 0 0 Z " fill="#F3E9B9" transform="translate(587,43)"/>
<path d="M0 0 C13.53 0 27.06 0 41 0 C41 2.31 41 4.62 41 7 C43.64 7 46.28 7 49 7 C49 12.94 49 18.88 49 25 C36.46 25 23.92 25 11 25 C11 26.65 11 28.3 11 30 C20.9 30 30.8 30 41 30 C41 33.3 41 36.6 41 40 C27.47 40 13.94 40 0 40 C0 37.36 0 34.72 0 32 C-2.31 32 -4.62 32 -7 32 C-7 23.75 -7 15.5 -7 7 C-4.69 7 -2.38 7 0 7 C0 4.69 0 2.38 0 0 Z " fill="#F3E9B9" transform="translate(167,43)"/>
<path d="M0 0 C5.94 0 11.88 0 18 0 C18 7.26 18 14.52 18 22 C24.6 22 31.2 22 38 22 C38 14.74 38 7.48 38 0 C43.61 0 49.22 0 55 0 C55 13.2 55 26.4 55 40 C52.69 40 50.38 40 48 40 C48 42.31 48 44.62 48 47 C34.47 47 20.94 47 7 47 C7 43.7 7 40.4 7 37 C16.9 37 26.8 37 37 37 C37 35.35 37 33.7 37 32 C27.1 32 17.2 32 7 32 C7 29.69 7 27.38 7 25 C4.69 25 2.38 25 0 25 C0 16.75 0 8.5 0 0 Z " fill="#F6ECBB" transform="translate(640,43)"/>
<path d="M0 0 C13.53 0 27.06 0 41 0 C41 3.3 41 6.6 41 10 C31.1 10 21.2 10 11 10 C11 11.65 11 13.3 11 15 C20.9 15 30.8 15 41 15 C41 17.31 41 19.62 41 22 C43.31 22 45.62 22 48 22 C48 25.3 48 28.6 48 32 C45.69 32 43.38 32 41 32 C41 34.64 41 37.28 41 40 C25.16 40 9.32 40 -7 40 C-7 36.7 -7 33.4 -7 30 C5.21 30 17.42 30 30 30 C30 28.35 30 26.7 30 25 C20.1 25 10.2 25 0 25 C0 22.36 0 19.72 0 17 C-2.31 17 -4.62 17 -7 17 C-7 13.7 -7 10.4 -7 7 C-4.69 7 -2.38 7 0 7 C0 4.69 0 2.38 0 0 Z " fill="#F4EABA" transform="translate(287,43)"/>
<path d="M0 0 C13.53 0 27.06 0 41 0 C41 3.3 41 6.6 41 10 C31.1 10 21.2 10 11 10 C11 11.65 11 13.3 11 15 C20.9 15 30.8 15 41 15 C41 17.31 41 19.62 41 22 C43.31 22 45.62 22 48 22 C48 25.3 48 28.6 48 32 C45.69 32 43.38 32 41 32 C41 34.64 41 37.28 41 40 C25.16 40 9.32 40 -7 40 C-7 36.7 -7 33.4 -7 30 C5.21 30 17.42 30 30 30 C30 28.35 30 26.7 30 25 C20.1 25 10.2 25 0 25 C0 22.36 0 19.72 0 17 C-2.31 17 -4.62 17 -7 17 C-7 13.7 -7 10.4 -7 7 C-4.69 7 -2.38 7 0 7 C0 4.69 0 2.38 0 0 Z " fill="#F4EABA" transform="translate(227,43)"/>
<path d="M0 0 C5.61 0 11.22 0 17 0 C17 4.95 17 9.9 17 15 C22.28 15 27.56 15 33 15 C33 18.3 33 21.6 33 25 C28.05 25 23.1 25 18 25 C18 34.9 18 44.8 18 55 C11.73 55 5.46 55 -1 55 C-1 45.1 -1 35.2 -1 25 C-5.95 25 -10.9 25 -16 25 C-16 21.7 -16 18.4 -16 15 C-10.72 15 -5.44 15 0 15 C0 10.05 0 5.1 0 0 Z " fill="#F1E7B8" transform="translate(1203,28)"/>
<path d="M0 0 C5.61 0 11.22 0 17 0 C17 4.95 17 9.9 17 15 C22.28 15 27.56 15 33 15 C33 18.3 33 21.6 33 25 C28.05 25 23.1 25 18 25 C18 34.9 18 44.8 18 55 C11.73 55 5.46 55 -1 55 C-1 45.1 -1 35.2 -1 25 C-5.95 25 -10.9 25 -16 25 C-16 21.7 -16 18.4 -16 15 C-10.72 15 -5.44 15 0 15 C0 10.05 0 5.1 0 0 Z " fill="#F1E7B8" transform="translate(1023,28)"/>
<path d="M0 0 C5.61 0 11.22 0 17 0 C17 4.95 17 9.9 17 15 C22.28 15 27.56 15 33 15 C33 18.3 33 21.6 33 25 C28.05 25 23.1 25 18 25 C18 34.9 18 44.8 18 55 C11.73 55 5.46 55 -1 55 C-1 45.1 -1 35.2 -1 25 C-5.95 25 -10.9 25 -16 25 C-16 21.7 -16 18.4 -16 15 C-10.72 15 -5.44 15 0 15 C0 10.05 0 5.1 0 0 Z " fill="#F1E7B8" transform="translate(783,28)"/>
<path d="M0 0 C5.61 0 11.22 0 17 0 C17 2.31 17 4.62 17 7 C18.65 7 20.3 7 22 7 C22 4.69 22 2.38 22 0 C30.58 0 39.16 0 48 0 C48 3.3 48 6.6 48 10 C40.41 10 32.82 10 25 10 C25 12.31 25 14.62 25 17 C22.36 17 19.72 17 17 17 C17 24.59 17 32.18 17 40 C11.39 40 5.78 40 0 40 C0 26.8 0 13.6 0 0 Z " fill="#F7ECBB" transform="translate(1128,43)"/>
<path d="M0 0 C5.61 0 11.22 0 17 0 C17 2.31 17 4.62 17 7 C18.65 7 20.3 7 22 7 C22 4.69 22 2.38 22 0 C30.58 0 39.16 0 48 0 C48 3.3 48 6.6 48 10 C40.41 10 32.82 10 25 10 C25 12.31 25 14.62 25 17 C22.36 17 19.72 17 17 17 C17 24.59 17 32.18 17 40 C11.39 40 5.78 40 0 40 C0 26.8 0 13.6 0 0 Z " fill="#F7ECBB" transform="translate(108,43)"/>
<path d="M0 0 C6.6 0 13.2 0 20 0 C20 6.6 20 13.2 20 20 C13.4 20 6.8 20 0 20 C0 13.4 0 6.8 0 0 Z " fill="#072442" transform="translate(838,53)"/>
<path d="M0 0 C6.6 0 13.2 0 20 0 C20 6.6 20 13.2 20 20 C13.4 20 6.8 20 0 20 C0 13.4 0 6.8 0 0 Z " fill="#072442" transform="translate(58,38)"/>
<path d="M0 0 C1.65 0 3.3 0 5 0 C5 2.31 5 4.62 5 7 C7.64 7 10.28 7 13 7 C13 11.29 13 15.58 13 20 C6.4 20 -0.2 20 -7 20 C-7 15.71 -7 11.42 -7 7 C-4.69 7 -2.38 7 0 7 C0 4.69 0 2.38 0 0 Z " fill="#0A2643" transform="translate(425,38)"/>
<path d="M0 0 C6.27 0 12.54 0 19 0 C19 1.65 19 3.3 19 5 C12.73 5 6.46 5 0 5 C0 3.35 0 1.7 0 0 Z " fill="#02203F" transform="translate(1078,68)"/>
<path d="M0 0 C6.27 0 12.54 0 19 0 C19 1.65 19 3.3 19 5 C12.73 5 6.46 5 0 5 C0 3.35 0 1.7 0 0 Z " fill="#02203F" transform="translate(598,53)"/>
<path d="M0 0 C6.27 0 12.54 0 19 0 C19 1.65 19 3.3 19 5 C12.73 5 6.46 5 0 5 C0 3.35 0 1.7 0 0 Z " fill="#02203F" transform="translate(178,53)"/>
</svg>
