<?xml version="1.0" encoding="UTF-8"?>
<svg version="1.1" xmlns="http://www.w3.org/2000/svg" width="1245" height="739">
<path d="M0 0 C410.85 0 821.7 0 1245 0 C1245 243.87 1245 487.74 1245 739 C834.15 739 423.3 739 0 739 C0 495.13 0 251.26 0 0 Z " fill="#383E46" transform="translate(0,0)"/>
<path d="M0 0 C0.88743088 -0.00297112 1.77486176 -0.00594224 2.68918449 -0.0090034 C5.66298253 -0.01767529 8.63674024 -0.01919738 11.61054993 -0.02069092 C13.74281907 -0.02532018 15.87508738 -0.03034499 18.00735474 -0.03573608 C23.80093344 -0.04885213 29.59450057 -0.05530356 35.3880918 -0.05974674 C39.00892082 -0.0626789 42.62974668 -0.06678399 46.25057411 -0.07125092 C57.58283463 -0.08492409 68.91508792 -0.09459149 80.24735612 -0.09845281 C93.32209876 -0.1029325 106.39673681 -0.12047709 119.47144765 -0.1494534 C129.58202665 -0.17108156 139.69257625 -0.18115771 149.80317813 -0.18249393 C155.83972973 -0.18354118 161.87618298 -0.18943224 167.91271019 -0.20731354 C173.59344935 -0.2238136 179.27401643 -0.22594023 184.95477104 -0.21717453 C187.03561616 -0.21640518 189.11647061 -0.22073331 191.19729233 -0.23063278 C194.04668906 -0.24338983 196.89547976 -0.23745504 199.74487305 -0.22705078 C200.56056076 -0.23510719 201.37624848 -0.24316359 202.216654 -0.25146413 C209.39212524 -0.19054581 216.50139395 0.90955752 222.12739563 5.57794189 C222.80802063 6.42356689 223.48864563 7.26919189 224.18989563 8.14044189 C224.76739563 8.84169189 225.34489563 9.54294189 225.93989563 10.26544189 C228.74044164 14.46626091 228.335411 18.81513437 228.33033752 23.661026 C228.33479421 24.98159179 228.33479421 24.98159179 228.33934093 26.32883567 C228.34804001 29.29054271 228.34953719 32.2522094 228.35102844 35.21392822 C228.35565575 37.33268826 228.36068029 39.45144746 228.36607361 41.57020569 C228.37920772 47.33470956 228.38564449 53.09920177 228.39008427 58.86371827 C228.39301325 62.46339911 228.39711771 66.06307674 228.40158844 69.66275597 C228.41526578 80.92026404 228.42493139 92.17776481 228.42879033 103.43528062 C228.43327239 116.43990296 228.4508262 129.44442027 228.47979093 142.44901067 C228.50139094 152.49494385 228.51149371 162.54084745 228.51283145 172.58680362 C228.51388064 178.58972278 228.51981284 184.59254324 228.53765106 190.595438 C228.55410274 196.24166599 228.55630132 201.88772077 228.54751205 207.53396416 C228.54674014 209.60681242 228.55110471 211.67966988 228.56097031 213.75249481 C228.57364577 216.58150619 228.56783686 219.40990002 228.55738831 222.23890686 C228.56947291 223.470289 228.56947291 223.470289 228.58180165 224.72654754 C228.52785167 230.9690901 227.02267204 235.0104585 222.87739563 239.82794189 C215.93703363 245.79988129 209.20267013 246.29012966 200.37979126 246.28088379 C199.04864494 246.28534047 199.04864494 246.28534047 197.69060677 246.28988719 C194.71680873 246.29855908 191.74305102 246.30008117 188.76924133 246.30157471 C186.63697219 246.30620397 184.50470388 246.31122877 182.37243652 246.31661987 C176.57885782 246.32973592 170.78529069 246.33618735 164.99169946 246.34063053 C161.37087044 246.34356269 157.75004458 246.34766778 154.12921715 246.3521347 C142.79695663 246.36580787 131.46470334 246.37547528 120.13243514 246.3793366 C107.0576925 246.38381628 93.98305445 246.40136088 80.90834361 246.43033719 C70.79776461 246.45196535 60.68721501 246.46204149 50.57661313 246.46337771 C44.54006153 246.46442497 38.50360828 246.47031603 32.46708107 246.48819733 C26.78634191 246.50469739 21.10577483 246.50682402 15.42502022 246.49805832 C13.3441751 246.49728897 11.26332065 246.5016171 9.18249893 246.51151657 C6.3331022 246.52427362 3.4843115 246.51833883 0.63491821 246.50793457 C-0.1807695 246.51599097 -0.99645722 246.52404738 -1.83686274 246.53234792 C-9.01233398 246.4714296 -16.12160269 245.37132627 -21.74760437 240.70294189 C-22.42822937 239.85731689 -23.10885437 239.01169189 -23.81010437 238.14044189 C-24.38760437 237.43919189 -24.96510437 236.73794189 -25.56010437 236.01544189 C-28.36065038 231.81462288 -27.95561974 227.46574942 -27.95054626 222.61985779 C-27.95351739 221.7394806 -27.95648851 220.85910341 -27.95954967 219.95204812 C-27.96824875 216.99034108 -27.96974593 214.02867439 -27.97123718 211.06695557 C-27.97586449 208.94819553 -27.98088903 206.82943633 -27.98628235 204.7106781 C-27.99941646 198.94617423 -28.00585323 193.18168202 -28.01029301 187.41716552 C-28.01322199 183.81748468 -28.01732645 180.21780705 -28.02179718 176.61812782 C-28.03547452 165.36061975 -28.04514013 154.10311897 -28.04899907 142.84560317 C-28.05348113 129.84098082 -28.07103494 116.83646352 -28.09999967 103.83187312 C-28.12159969 93.78593993 -28.13170245 83.74003634 -28.13304019 73.69408017 C-28.13408938 67.69116101 -28.14002158 61.68834055 -28.1578598 55.68544579 C-28.17431148 50.03921779 -28.17651006 44.39316302 -28.16772079 38.74691963 C-28.16694888 36.67407137 -28.17131345 34.60121391 -28.18117905 32.52838898 C-28.19385451 29.6993776 -28.1880456 26.87098377 -28.17759705 24.04197693 C-28.18565345 23.2210555 -28.19370986 22.40013408 -28.20201039 21.55433625 C-28.14806041 15.31179369 -26.64288078 11.27042529 -22.49760437 6.45294189 C-15.55724237 0.4810025 -8.82287887 -0.00924587 0 0 Z " fill="#9C070D" transform="translate(600.8101043701172,413.85955810546875)"/>
<path d="M0 0 C0.88743088 -0.00297112 1.77486176 -0.00594224 2.68918449 -0.0090034 C5.66298253 -0.01767529 8.63674024 -0.01919738 11.61054993 -0.02069092 C13.74281907 -0.02532018 15.87508738 -0.03034499 18.00735474 -0.03573608 C23.80093344 -0.04885213 29.59450057 -0.05530356 35.3880918 -0.05974674 C39.00892082 -0.0626789 42.62974668 -0.06678399 46.25057411 -0.07125092 C57.58283463 -0.08492409 68.91508792 -0.09459149 80.24735612 -0.09845281 C93.32209876 -0.1029325 106.39673681 -0.12047709 119.47144765 -0.1494534 C129.58202665 -0.17108156 139.69257625 -0.18115771 149.80317813 -0.18249393 C155.83972973 -0.18354118 161.87618298 -0.18943224 167.91271019 -0.20731354 C173.59344935 -0.2238136 179.27401643 -0.22594023 184.95477104 -0.21717453 C187.03561616 -0.21640518 189.11647061 -0.22073331 191.19729233 -0.23063278 C194.04668906 -0.24338983 196.89547976 -0.23745504 199.74487305 -0.22705078 C200.56056076 -0.23510719 201.37624848 -0.24316359 202.216654 -0.25146413 C209.39212524 -0.19054581 216.50139395 0.90955752 222.12739563 5.57794189 C222.80802063 6.42356689 223.48864563 7.26919189 224.18989563 8.14044189 C224.76739563 8.84169189 225.34489563 9.54294189 225.93989563 10.26544189 C228.74044164 14.46626091 228.335411 18.81513437 228.33033752 23.661026 C228.33479421 24.98159179 228.33479421 24.98159179 228.33934093 26.32883567 C228.34804001 29.29054271 228.34953719 32.2522094 228.35102844 35.21392822 C228.35565575 37.33268826 228.36068029 39.45144746 228.36607361 41.57020569 C228.37920772 47.33470956 228.38564449 53.09920177 228.39008427 58.86371827 C228.39301325 62.46339911 228.39711771 66.06307674 228.40158844 69.66275597 C228.41526578 80.92026404 228.42493139 92.17776481 228.42879033 103.43528062 C228.43327239 116.43990296 228.4508262 129.44442027 228.47979093 142.44901067 C228.50139094 152.49494385 228.51149371 162.54084745 228.51283145 172.58680362 C228.51388064 178.58972278 228.51981284 184.59254324 228.53765106 190.595438 C228.55410274 196.24166599 228.55630132 201.88772077 228.54751205 207.53396416 C228.54674014 209.60681242 228.55110471 211.67966988 228.56097031 213.75249481 C228.57364577 216.58150619 228.56783686 219.40990002 228.55738831 222.23890686 C228.56947291 223.470289 228.56947291 223.470289 228.58180165 224.72654754 C228.52785167 230.9690901 227.02267204 235.0104585 222.87739563 239.82794189 C215.93703363 245.79988129 209.20267013 246.29012966 200.37979126 246.28088379 C199.04864494 246.28534047 199.04864494 246.28534047 197.69060677 246.28988719 C194.71680873 246.29855908 191.74305102 246.30008117 188.76924133 246.30157471 C186.63697219 246.30620397 184.50470388 246.31122877 182.37243652 246.31661987 C176.57885782 246.32973592 170.78529069 246.33618735 164.99169946 246.34063053 C161.37087044 246.34356269 157.75004458 246.34766778 154.12921715 246.3521347 C142.79695663 246.36580787 131.46470334 246.37547528 120.13243514 246.3793366 C107.0576925 246.38381628 93.98305445 246.40136088 80.90834361 246.43033719 C70.79776461 246.45196535 60.68721501 246.46204149 50.57661313 246.46337771 C44.54006153 246.46442497 38.50360828 246.47031603 32.46708107 246.48819733 C26.78634191 246.50469739 21.10577483 246.50682402 15.42502022 246.49805832 C13.3441751 246.49728897 11.26332065 246.5016171 9.18249893 246.51151657 C6.3331022 246.52427362 3.4843115 246.51833883 0.63491821 246.50793457 C-0.1807695 246.51599097 -0.99645722 246.52404738 -1.83686274 246.53234792 C-9.01233398 246.4714296 -16.12160269 245.37132627 -21.74760437 240.70294189 C-22.42822937 239.85731689 -23.10885437 239.01169189 -23.81010437 238.14044189 C-24.38760437 237.43919189 -24.96510437 236.73794189 -25.56010437 236.01544189 C-28.36065038 231.81462288 -27.95561974 227.46574942 -27.95054626 222.61985779 C-27.95351739 221.7394806 -27.95648851 220.85910341 -27.95954967 219.95204812 C-27.96824875 216.99034108 -27.96974593 214.02867439 -27.97123718 211.06695557 C-27.97586449 208.94819553 -27.98088903 206.82943633 -27.98628235 204.7106781 C-27.99941646 198.94617423 -28.00585323 193.18168202 -28.01029301 187.41716552 C-28.01322199 183.81748468 -28.01732645 180.21780705 -28.02179718 176.61812782 C-28.03547452 165.36061975 -28.04514013 154.10311897 -28.04899907 142.84560317 C-28.05348113 129.84098082 -28.07103494 116.83646352 -28.09999967 103.83187312 C-28.12159969 93.78593993 -28.13170245 83.74003634 -28.13304019 73.69408017 C-28.13408938 67.69116101 -28.14002158 61.68834055 -28.1578598 55.68544579 C-28.17431148 50.03921779 -28.17651006 44.39316302 -28.16772079 38.74691963 C-28.16694888 36.67407137 -28.17131345 34.60121391 -28.18117905 32.52838898 C-28.19385451 29.6993776 -28.1880456 26.87098377 -28.17759705 24.04197693 C-28.18565345 23.2210555 -28.19370986 22.40013408 -28.20201039 21.55433625 C-28.14806041 15.31179369 -26.64288078 11.27042529 -22.49760437 6.45294189 C-15.55724237 0.4810025 -8.82287887 -0.00924587 0 0 Z " fill="#9D080E" transform="translate(275.8101043701172,413.85955810546875)"/>
<path d="M0 0 C-0.61746946 5.45546932 -1.49326585 10.74986556 -2.67407227 16.10913086 C-2.84002899 16.87612808 -3.00598572 17.64312531 -3.17697144 18.43336487 C-3.53455897 20.08469852 -3.89363211 21.73571106 -4.25406075 23.38642693 C-4.82530776 26.00565818 -5.39120132 28.62599387 -5.95555115 31.24671936 C-7.55961679 38.69315836 -9.16976968 46.13825155 -10.79174805 53.58081055 C-11.78637412 58.14653801 -12.77192121 62.71414792 -13.75184441 67.28305244 C-14.12519301 69.01520768 -14.50193493 70.74663535 -14.88223457 72.47727776 C-15.41513292 74.90358775 -15.93641775 77.33213901 -16.45532227 79.76147461 C-16.69140953 80.81617447 -16.69140953 80.81617447 -16.93226624 81.8921814 C-18.00565326 87.00111429 -18.12646432 91.77978388 -18 97 C-13.02848534 96.65266389 -13.02848534 96.65266389 -8.7890625 94.265625 C-6.64386986 91.5490055 -6.59523623 90.41291268 -6.625 87 C-6.31331271 80.96662453 -4.96640221 75.57006521 -3.25 69.8125 C-3.00975098 68.98169922 -2.76950195 68.15089844 -2.52197266 67.29492188 C1.4049649 54.50765716 9.20976492 41.86872134 21 35 C26.41546596 32.22960329 30.58314657 31.55406684 36.625 31.6875 C37.73101562 31.68266602 37.73101562 31.68266602 38.859375 31.67773438 C43.00085367 31.7185554 46.2773262 32.15337723 50 34 C50 33.34 50 32.68 50 32 C59.57 32 69.14 32 79 32 C76.75606721 43.21966397 76.75606721 43.21966397 75.85498047 47.43041992 C75.65492401 48.36806686 75.45486755 49.30571381 75.24874878 50.27177429 C74.93612595 51.73632805 74.93612595 51.73632805 74.6171875 53.23046875 C73.93616362 56.44602882 73.25637601 59.66184875 72.57666016 62.87768555 C72.10764279 65.09009629 71.63627573 67.30201017 71.16259766 69.51342773 C70.47421391 72.73025213 69.79488573 75.94887857 69.1171875 79.16796875 C68.90472382 80.15041061 68.69226013 81.13285248 68.47335815 82.14506531 C67.41620167 87.20948723 66.75748179 91.82612912 67 97 C69.32753777 97.83126349 70.59835448 98.13018904 72.97991943 97.35823059 C79.91144795 92.69771644 81.31110916 79.3909395 82.859375 71.70703125 C83.09408508 70.594384 83.32879517 69.48173676 83.57061768 68.33537292 C84.30820266 64.82996375 85.02988811 61.32153618 85.75 57.8125 C86.48724172 54.26485441 87.22781237 50.71794562 87.972229 47.17179871 C88.43223577 44.97595159 88.88757437 42.77912043 89.33782959 40.58125305 C89.54184387 39.59900253 89.74585815 38.61675201 89.95605469 37.60473633 C90.13416687 36.73714188 90.31227905 35.86954742 90.49578857 34.97566223 C91 33 91 33 92 32 C94.07262076 31.91232888 96.14820294 31.89304127 98.22265625 31.90234375 C99.48271484 31.90556641 100.74277344 31.90878906 102.04101562 31.91210938 C103.38151109 31.92046597 104.72200588 31.92893093 106.0625 31.9375 C107.40689942 31.9425134 108.7513006 31.94707658 110.09570312 31.95117188 C113.39717941 31.96300512 116.69856803 31.97949029 120 32 C119.31876706 38.35227595 118.10786253 44.47944871 116.71484375 50.7109375 C116.26196851 52.78116226 115.80950732 54.85147763 115.35742188 56.921875 C114.64865634 60.15045045 113.93677877 63.37823513 113.2175293 66.60449219 C112.51976382 69.74216283 111.83517068 72.88248687 111.15234375 76.0234375 C110.93674301 76.97479584 110.72114227 77.92615417 110.49900818 78.90634155 C109.18127721 85.02337006 108.73739672 90.74761655 109 97 C112.63510555 96.62391254 112.63510555 96.62391254 115.41943359 94.44873047 C120.02904139 85.23563111 121.61971319 75.14625691 123.625 65.125 C124.1992684 62.31913624 124.77752065 59.51412787 125.35751343 56.70944214 C125.71460488 54.97603011 126.06783392 53.24181532 126.41616821 51.50662231 C127.74948964 44.93296328 129.36775883 38.52896467 131 32 C140.57 32 150.14 32 160 32 C158.76251129 38.80618789 157.50551514 45.58380156 156.09228516 52.35180664 C155.91310043 53.21517136 155.73391571 54.07853607 155.54930115 54.96806335 C154.96444244 57.78249143 154.37715705 60.59640263 153.7890625 63.41015625 C153.58627056 64.38051756 153.38347862 65.35087887 153.17454147 66.35064507 C152.10219116 71.47842865 151.02743778 76.60570296 149.95117188 81.73266602 C149.06569535 85.95333148 148.18538845 90.17502506 147.30957031 94.39770508 C146.24549306 99.52790889 145.17245509 104.6561623 144.09309006 109.7831707 C143.68576457 111.72522077 143.28151357 113.6679185 142.88051224 115.61128426 C137.24075686 142.90947307 137.24075686 142.90947307 127 152 C118.87124232 157.33081572 110.55892973 157.76984669 101 157 C95.6000016 155.4807344 92.00150227 152.78017028 89 148 C86.09687474 142.60848167 85.18628352 138.01490423 86 132 C88.13817295 126.44075032 91.7069854 122.07836387 96 118 C94.96875 117.938125 93.9375 117.87625 92.875 117.8125 C88.07047303 116.80509918 86.46470032 115.38220746 83 112 C82.67 111.34 82.34 110.68 82 110 C77.7736532 111.49967145 74.04108914 113.62591501 70.18359375 115.87890625 C63.99849386 119.05444054 56.77010557 118.68548282 50 118 C46.00653359 116.43508064 43.58329291 114.33185213 41.828125 110.32421875 C41.41820312 109.17373047 41.41820312 109.17373047 41 108 C40.38253906 108.54269531 39.76507813 109.08539063 39.12890625 109.64453125 C32.11978228 115.56548072 25.62199577 119.78454272 16.10546875 119.34765625 C8.41736593 118.07819215 3.0310093 114.82537919 -2 109 C-4.71826493 110.30212691 -7.18917567 111.75623771 -9.6875 113.4375 C-16.94027443 117.96880824 -24.41299696 120.24449319 -33 119 C-38.29737711 117.30410991 -42.05381027 114.80119808 -45 110 C-51.46644284 96.83616993 -46.72606125 82.48016447 -43.6875 68.9375 C-43.27822088 67.06208345 -42.87001041 65.18643336 -42.46289062 63.31054688 C-39.30153073 48.85192148 -39.30153073 48.85192148 -37.3984375 42.19140625 C-35.2258934 34.54866608 -33.9698988 26.67721881 -32.54956055 18.86669922 C-32.17302371 16.80583033 -31.78813547 14.74665323 -31.40234375 12.6875 C-31.18054443 11.47449219 -30.95874512 10.26148437 -30.73022461 9.01171875 C-30 6 -30 6 -28 3 C-25.3673802 2.47465659 -22.90926205 2.11805083 -20.25 1.875 C-18.83842896 1.72763819 -17.42696813 1.57921642 -16.015625 1.4296875 C-15.33387207 1.36096436 -14.65211914 1.29224121 -13.94970703 1.22143555 C-2.64140625 -0.06289062 -2.64140625 -0.06289062 0 0 Z " fill="#4DC9A1" transform="translate(410,78)"/>
<path d="M0 0 C3.28345377 41.04899379 3.28345377 41.04899379 3.4375 57 C3.45941406 57.99177246 3.48132813 58.98354492 3.50390625 60.00537109 C3.48072906 68.33322489 1.4469162 75.63328962 -4.25 81.875 C-12.07126297 88.97764266 -21.57193949 91.35750538 -31.9375 91.375 C-32.69740234 91.39949219 -33.45730469 91.42398438 -34.24023438 91.44921875 C-41.66090754 91.48724099 -47.33074175 88.72438188 -53 84 C-54.051875 84.78375 -55.10375 85.5675 -56.1875 86.375 C-62.85719457 91.34457635 -69.83462452 92.04942721 -78 92 C-83.85258073 91.11927183 -87.13855237 88.35493601 -90.7734375 83.81640625 C-96.37161773 75.5261075 -94.65358237 65.0821166 -92.9140625 55.6796875 C-89.61756872 39.23513743 -89.61756872 39.23513743 -88 36 C-87.93003986 34.29297265 -87.91559846 32.58331997 -87.9375 30.875 C-87.94652344 29.96492188 -87.95554687 29.05484375 -87.96484375 28.1171875 C-87.97644531 27.41851562 -87.98804688 26.71984375 -88 26 C-90.33165034 25.66501699 -90.33165034 25.66501699 -93 26 C-103.09775404 34.32067429 -103.78855856 55.70537382 -106.25 67.8125 C-106.71296217 70.06587435 -107.17649914 72.31913068 -107.640625 74.57226562 C-108.76811889 80.04665116 -109.88377558 85.52325765 -111 91 C-120.57 91 -130.14 91 -140 91 C-140 89.68 -140 88.36 -140 87 C-140.75023437 87.3609375 -141.50046875 87.721875 -142.2734375 88.09375 C-149.73490761 91.47678431 -156.1089779 93.788346 -164.1875 91.3359375 C-169.30934683 89.10482998 -172.90310936 85.61854625 -176 81 C-181.17226369 65.48320893 -174.5137438 46.54226769 -171 31.375 C-170.42011702 28.80768811 -169.84197867 26.23998151 -169.265625 23.671875 C-167.86696501 17.44221127 -166.43295259 11.22225542 -165 5 C-155.43 5 -145.86 5 -136 5 C-136 9.67859658 -136.534326 11.72475414 -138 16 C-138.87115573 19.52358999 -139.62422379 23.07178197 -140.3828125 26.62109375 C-140.60194305 27.63921646 -140.82107361 28.65733917 -141.04684448 29.70631409 C-141.50750477 31.85337844 -141.9662983 34.00084406 -142.42333984 36.14868164 C-143.1222034 39.42439179 -143.8323187 42.6975326 -144.54296875 45.97070312 C-144.99027586 48.06235202 -145.43691283 50.15414436 -145.8828125 52.24609375 C-146.20150803 53.7057682 -146.20150803 53.7057682 -146.52664185 55.19493103 C-147.58870321 60.24387658 -148.24143297 64.84037262 -148 70 C-144.54735658 70.32117613 -142.47496799 70.24879276 -139.375 68.625 C-133.48632137 62.11646046 -132.13704215 52.88777002 -130.625 44.5 C-128.11132064 31.23956182 -125.08734349 18.1391595 -122 5 C-112.43 5 -102.86 5 -93 5 C-92.505 5.99 -92.505 5.99 -92 7 C-91.30519531 6.67644531 -90.61039063 6.35289063 -89.89453125 6.01953125 C-83.61460041 3.8075718 -75.83317453 4.08632096 -69.5 6.125 C-64.52581541 8.78974175 -62.19325218 11.5566741 -59.6875 16.6875 C-57.03456451 29.46982552 -61.1687272 42.07629773 -64.3203125 54.40820312 C-65.55400845 59.42009294 -66.26832899 63.8381976 -66 69 C-62.41672247 70.00217064 -62.41672247 70.00217064 -59 69 C-58.52133452 67.47644279 -58.11629486 65.92940513 -57.75 64.375 C-56.31240577 59.24389443 -54.10702733 55.45493664 -50 52 C-49.34 52 -48.68 52 -48 52 C-47.73316406 51.12730469 -47.46632813 50.25460938 -47.19140625 49.35546875 C-46.03342718 46.0941441 -44.6096056 43.33652077 -42.9375 40.3125 C-38.52685784 31.98963374 -35.85642178 23.01948864 -33.02124023 14.06762695 C-32.65716064 12.92640381 -32.29308105 11.78518066 -31.91796875 10.609375 C-31.43493286 9.0620166 -31.43493286 9.0620166 -30.94213867 7.48339844 C-30 5 -30 5 -28 3 C-25.7409668 2.49755859 -25.7409668 2.49755859 -22.94921875 2.1484375 C-21.94052734 2.01953125 -20.93183594 1.890625 -19.89257812 1.7578125 C-18.83490234 1.63148437 -17.77722656 1.50515625 -16.6875 1.375 C-15.64142578 1.2409375 -14.59535156 1.106875 -13.51757812 0.96875 C-8.97797558 0.40238329 -4.58062201 -0.07768155 0 0 Z " fill="#4DC9A1" transform="translate(1014,105)"/>
<path d="M0 0 C1.00417969 0.01353516 2.00835938 0.02707031 3.04296875 0.04101562 C5.48756864 0.07593848 7.93097734 0.12497252 10.375 0.1875 C10.3904612 1.15658546 10.3904612 1.15658546 10.40623474 2.14524841 C10.51635679 9.01022436 10.63072567 15.87512114 10.74731445 22.73999023 C10.79002019 25.28522041 10.83172408 27.83046763 10.87231445 30.37573242 C11.14348396 47.3255005 11.60634804 64.25267202 12.375 81.1875 C12.69251221 80.22972656 13.01002441 79.27195312 13.3371582 78.28515625 C14.52651224 74.69886117 15.71791719 71.11325012 16.90991211 67.52783203 C17.42348434 65.98211669 17.93651568 64.43622152 18.44897461 62.89013672 C19.18978671 60.65543771 19.93260443 58.42141355 20.67578125 56.1875 C20.90090897 55.50695557 21.12603668 54.82641113 21.35798645 54.12524414 C22.70739462 50.07655635 24.15558901 46.07793886 25.66789246 42.08743286 C26.69414208 39.32999461 27.61534803 36.54188019 28.53125 33.74609375 C28.91410156 32.58529297 29.29695312 31.42449219 29.69140625 30.22851562 C30.48162693 27.82264573 31.27068622 25.41639406 32.05859375 23.00976562 C33.95155589 17.27670351 35.93187881 11.70582897 38.375 6.1875 C39.035 4.2075 39.695 2.2275 40.375 0.1875 C48.625 0.1875 56.875 0.1875 65.375 0.1875 C66.035 27.5775 66.695 54.9675 67.375 83.1875 C70.675 72.9575 73.975 62.7275 77.375 52.1875 C78.365 49.5475 79.355 46.9075 80.375 44.1875 C81.10704565 42.04486115 81.82634462 39.8978141 82.53125 37.74609375 C82.91410156 36.58529297 83.29695312 35.42449219 83.69140625 34.22851562 C84.48162693 31.82264573 85.27068622 29.41639406 86.05859375 27.00976562 C87.95159014 21.27659978 89.93804111 15.70839802 92.375 10.1875 C92.97071568 8.38564392 93.53784132 6.57381352 94.0625 4.75 C94.495625 3.244375 94.92875 1.73875 95.375 0.1875 C100.985 0.1875 106.595 0.1875 112.375 0.1875 C111.62166304 5.46085873 111.12088009 8.30577856 109.0625 12.875 C107.29678073 16.93767213 105.72933102 20.96972625 104.375 25.1875 C103.07223129 29.22137421 101.61105609 33.10546292 99.9375 37 C98.01551908 41.49637738 96.37794273 46.03721839 94.875 50.6875 C93.04303673 56.35580988 90.91013878 61.82068172 88.55859375 67.29296875 C86.96343661 71.19399662 85.70072108 75.17881537 84.40625 79.1875 C83.00078224 83.27613348 81.29109195 87.21323592 79.59375 91.1875 C78.38718484 94.15750654 77.35989934 97.13748913 76.375 100.1875 C74.38280474 106.34152826 71.93709996 112.25210228 69.375 118.1875 C68.385 120.4975 67.395 122.8075 66.375 125.1875 C57.135 125.1875 47.895 125.1875 38.375 125.1875 C38.31441406 122.11050781 38.25382813 119.03351563 38.19140625 115.86328125 C38.12918343 112.80475432 38.06597794 109.74624911 38.00268555 106.68774414 C37.95999776 104.60019967 37.91829361 102.51263479 37.87768555 100.42504883 C37.60266199 86.33094023 37.12412328 72.26458355 36.375 58.1875 C36.04266357 59.21520508 35.71032715 60.24291016 35.36791992 61.30175781 C33.40002974 67.36294099 31.39608443 73.32897999 28.875 79.1875 C26.96858638 83.61991166 25.35843554 88.09928023 23.875 92.6875 C21.71448719 99.35639541 19.1202393 105.73618765 16.375 112.1875 C14.725 116.4775 13.075 120.7675 11.375 125.1875 C2.135 125.1875 -7.105 125.1875 -16.625 125.1875 C-18.2297791 89.19459725 -18.81623793 53.21378441 -18.625 17.1875 C-20.22616833 18.23878744 -21.81814299 19.30408384 -23.40625 20.375 C-24.29376953 20.96667969 -25.18128906 21.55835937 -26.09570312 22.16796875 C-31.84728175 26.76034891 -35.42755553 34.00283316 -36.625 41.1875 C-37.47449955 50.11792082 -37.47449955 50.11792082 -34.625 58.1875 C-34.625 59.5075 -34.625 60.8275 -34.625 62.1875 C-40.79366038 62.57304127 -46.15444485 62.30112663 -51.625 59.1875 C-55.99425201 54.81824799 -57.90914944 50.15058261 -58 44 C-57.74631254 33.48606408 -52.84757469 25.58709858 -45.625 18.1875 C-32.34661104 6.57828705 -17.706989 -0.46099638 0 0 Z " fill="#4DC9A1" transform="translate(742.625,70.8125)"/>
<path d="M0 0 C3.71575331 1.35767909 5.53241523 2.36096748 7.875 5.5625 C9 8 9 8 9 10 C9.65210449 10.09482666 10.30420898 10.18965332 10.97607422 10.28735352 C14.98222863 11.23148114 18.60281114 12.79261854 22.3828125 14.40234375 C23.21368378 14.75169479 24.04455505 15.10104584 24.90060425 15.46098328 C27.64389614 16.61553987 30.38440898 17.77654862 33.125 18.9375 C35.04406528 19.74641882 36.96333937 20.55484241 38.8828125 21.36279297 C42.89175287 23.05067613 46.89977276 24.74071951 50.90722656 26.43212891 C59.68460242 30.13438867 68.4744634 33.80678548 77.26361084 37.48098755 C87.90287851 41.92898598 87.90287851 41.92898598 92.68405151 43.93562317 C96.91732781 45.71222904 101.15453397 47.47840578 105.3984375 49.22949219 C107.14062514 49.95247363 108.88281264 50.67545539 110.625 51.3984375 C111.84364746 51.89725937 111.84364746 51.89725937 113.08691406 52.40615845 C113.83424805 52.71733612 114.58158203 53.02851379 115.3515625 53.34912109 C116.33890381 53.7561879 116.33890381 53.7561879 117.34619141 54.17147827 C119 55 119 55 121 57 C120.94189453 59.46557617 120.94189453 59.46557617 120 62 C117.84326172 63.4152832 117.84326172 63.4152832 114.9296875 64.55078125 C113.82657227 64.99317139 112.72345703 65.43556152 111.58691406 65.89135742 C109.7495166 66.594823 109.7495166 66.594823 107.875 67.3125 C106.57435296 67.82771253 105.27456797 68.3451058 103.97558594 68.86450195 C101.15262572 69.99123317 98.32609352 71.10831058 95.49707031 72.21972656 C88.52657748 74.96768372 81.60481628 77.8350588 74.67715454 80.68881226 C72.24050812 81.69140557 69.80249484 82.69059882 67.36401367 83.6887207 C58.38590227 87.3648661 49.41941368 91.06763791 40.46484375 94.80078125 C39.51741302 95.19537033 38.5699823 95.58995941 37.59384155 95.99650574 C32.98490933 97.91616339 28.3774639 99.83924599 23.77246094 101.76831055 C22.11269442 102.46027774 20.45286697 103.15209879 18.79296875 103.84375 C18.03032211 104.16479202 17.26767548 104.48583405 16.48191833 104.81660461 C11.22712452 107 11.22712452 107 9 107 C9 123.5 9 140 9 157 C1.41 157 -6.18 157 -14 157 C-14.09261029 137.67647456 -14.16398578 118.35301183 -14.20724869 99.02931023 C-14.22787067 90.05689818 -14.25598429 81.08462658 -14.30175781 72.11230469 C-14.34163675 64.2916826 -14.36743546 56.47116223 -14.37635398 48.65044129 C-14.38156696 44.50969037 -14.39381161 40.36923046 -14.42292023 36.22857285 C-14.45010617 32.32976075 -14.45843868 28.43135905 -14.45243073 24.53246117 C-14.45352955 23.10300782 -14.46146486 21.67354051 -14.4768219 20.24416924 C-14.61455801 6.76085418 -14.61455801 6.76085418 -10 2 C-6.25816125 -0.49455917 -4.43756964 -0.37606522 0 0 Z " fill="#ED386D" transform="translate(77,58)"/>
<path d="M0 0 C1.04285156 -0.020625 2.08570313 -0.04125 3.16015625 -0.0625 C14.95299063 -0.12139056 24.39447109 2.76696981 33.12890625 10.87890625 C40.30959749 18.63549252 42.02137799 26.13395301 41.6875 36.609375 C40.67204104 48.43947188 35.18582913 59.02516645 26.5625 67.1875 C21.88525848 71.12322762 16.99810639 73.89680085 11.375 76.25 C10.20324219 76.78947266 10.20324219 76.78947266 9.0078125 77.33984375 C5.81953437 78.44202298 2.92554808 78.6711789 -0.4375 78.875 C-2.17966797 78.98714844 -2.17966797 78.98714844 -3.95703125 79.1015625 C-4.83746094 79.15054688 -5.71789062 79.19953125 -6.625 79.25 C-6.81533813 81.19990845 -6.81533813 81.19990845 -7.00952148 83.18920898 C-7.539839 87.94581166 -8.43343253 92.55442276 -9.47265625 97.22265625 C-9.64880966 98.03117538 -9.82496307 98.83969452 -10.00645447 99.67271423 C-10.56251462 102.22027076 -11.12488764 104.7663834 -11.6875 107.3125 C-12.06878023 109.05394437 -12.44964338 110.79548011 -12.83007812 112.53710938 C-13.75613757 116.77600019 -14.69074685 121.01287467 -15.625 125.25 C-25.195 125.25 -34.765 125.25 -44.625 125.25 C-43.4993327 117.37032892 -43.4993327 117.37032892 -42.82470703 114.03393555 C-42.67429962 113.28593185 -42.52389221 112.53792816 -42.368927 111.76725769 C-42.12830032 110.58889091 -42.12830032 110.58889091 -41.8828125 109.38671875 C-41.71377411 108.55469437 -41.54473572 107.72266998 -41.37057495 106.86543274 C-41.01362183 105.11294297 -40.65553964 103.36068284 -40.29638672 101.60864258 C-39.75395779 98.9568486 -39.21863316 96.30368402 -38.68359375 93.65039062 C-37.14524277 86.09190045 -35.60066492 78.63274847 -33.23730469 71.28051758 C-32.24021617 67.97398442 -31.73232937 64.66110564 -31.1875 61.25 C-28.76608598 46.74590888 -25.2718223 32.48812538 -21.625 18.25 C-16.42103939 16.87689288 -11.3470416 15.82244021 -6 15.125 C-4.74960937 14.95742187 -3.49921875 14.78984375 -2.2109375 14.6171875 C1.02251319 14.28609342 4.12948301 14.22316811 7.375 14.25 C5.89421012 23.98493595 3.90433672 33.59728852 1.86108398 43.22583008 C1.30708768 45.83802002 0.7577772 48.45116556 0.20898438 51.06445312 C-0.1429559 52.73182854 -0.49515965 54.39914836 -0.84765625 56.06640625 C-1.01121109 56.84448135 -1.17476593 57.62255646 -1.34327698 58.42420959 C-1.98261702 61.4280454 -2.65289456 64.33368368 -3.625 67.25 C6.17976752 61.49786972 11.35714498 54.81618605 15.375 44.25 C15.7875 43.1775 16.2 42.105 16.625 41 C18.0571491 33.83925452 19.02469791 26.15306312 15.1875 19.625 C13.06611065 16.54056723 10.76784442 14.83614303 7.375 13.25 C4.60165921 12.9033324 2.14309167 12.72576755 -0.625 12.75 C-1.37249512 12.75499512 -2.11999023 12.75999023 -2.89013672 12.76513672 C-12.35351766 13.05777699 -21.3878796 16.01873443 -28.26953125 22.73046875 C-36.1047336 31.51402412 -36.96383343 40.90231162 -36.828125 52.22265625 C-36.9667987 55.1275954 -36.9667987 55.1275954 -35.625 56.25 C-35.58419217 58.24958364 -35.58245644 60.25045254 -35.625 62.25 C-41.54038902 62.56689584 -46.37533635 62.18981164 -51.625 59.25 C-56.27869048 54.47384398 -57.94579738 50.38049685 -58.125 43.75 C-57.95148985 33.92116045 -54.24158816 26.71088871 -47.625 19.5625 C-34.12065892 7.07778199 -18.38115901 0.08890524 0 0 Z " fill="#4DC9A1" transform="translate(330.625,70.75)"/>
<path d="M0 0 C-1.44001415 7.30664804 -2.96260056 14.59346283 -4.52197266 21.87548828 C-4.76610397 23.0181163 -5.01023529 24.16074432 -5.26176453 25.33799744 C-6.06190999 29.08223541 -6.8629794 32.82627504 -7.6640625 36.5703125 C-8.22176743 39.17917683 -8.77942071 41.78805216 -9.33700562 44.39694214 C-10.65034548 50.54139196 -11.96435141 56.68569915 -13.27860296 62.82995403 C-14.77611927 69.8311505 -16.27288345 76.8325077 -17.76958776 83.8338778 C-20.84556118 98.22276288 -23.92256765 112.61142687 -27 127 C-36.57 127 -46.14 127 -56 127 C-55.41779705 122.92457936 -54.85503344 119.0314 -54.00366211 115.03491211 C-53.80905899 114.11572998 -53.61445587 113.19654785 -53.41395569 112.24951172 C-53.20387375 111.26869629 -52.99379181 110.28788086 -52.77734375 109.27734375 C-52.5560228 108.23473389 -52.33470184 107.19212402 -52.10667419 106.11791992 C-51.38576751 102.7239851 -50.66167465 99.33073889 -49.9375 95.9375 C-49.18929402 92.42047742 -48.44180211 88.90330353 -47.69433594 85.38612366 C-47.19168689 83.02126703 -46.68875642 80.65647021 -46.18554688 78.29173279 C-44.62099327 70.93652333 -43.06791034 63.57901963 -41.52734375 56.21875 C-41.34100876 55.32926163 -41.15467377 54.43977325 -40.96269226 53.52333069 C-40.262946 50.18228705 -39.56333658 46.8412192 -38.86691284 43.4994812 C-38.3997738 41.25844775 -37.93055964 39.01785793 -37.4609375 36.77734375 C-37.07107666 34.90937134 -37.07107666 34.90937134 -36.67333984 33.00366211 C-36 30 -36 30 -35 27 C-39.95 27 -44.9 27 -50 27 C-49.01 22.71 -48.02 18.42 -47 14 C-45.65808594 13.85304688 -44.31617188 13.70609375 -42.93359375 13.5546875 C-29.09652813 11.89879525 -11.91553067 0 0 0 Z " fill="#4DC9A1" transform="translate(657,69)"/>
<path d="M0 0 C3.98066095 1.57724302 5.60667274 2.41000911 8 6 C8.24609566 8.72736645 8.24609566 8.72736645 8.24050903 12.0933075 C8.24325836 13.36796875 8.24600769 14.64263 8.24884033 15.95591736 C8.24176202 17.37124727 8.2344924 18.78657624 8.22705078 20.2019043 C8.22648673 21.69001254 8.22680311 23.17812133 8.22793579 24.66622925 C8.22851054 28.70935967 8.21673654 32.75237186 8.20278788 36.79547477 C8.19030082 41.019553 8.18911162 45.24363382 8.18673706 49.46772766 C8.18051633 57.46812096 8.1640975 65.46845972 8.14403808 73.46882898 C8.12169752 82.5763355 8.11069029 91.68384461 8.10064721 100.7913717 C8.07973178 119.52761293 8.04414229 138.26380009 8 157 C0.74 157 -6.52 157 -14 157 C-14.09261029 137.67647456 -14.16398578 118.35301183 -14.20724869 99.02931023 C-14.22787067 90.05689818 -14.25598429 81.08462658 -14.30175781 72.11230469 C-14.34163675 64.2916826 -14.36743546 56.47116223 -14.37635398 48.65044129 C-14.38156696 44.50969037 -14.39381161 40.36923046 -14.42292023 36.22857285 C-14.45010617 32.32976075 -14.45843868 28.43135905 -14.45243073 24.53246117 C-14.45352955 23.10300782 -14.46146486 21.67354051 -14.4768219 20.24416924 C-14.61455801 6.76085418 -14.61455801 6.76085418 -10 2 C-6.25816125 -0.49455917 -4.43756964 -0.37606522 0 0 Z " fill="#F0AF8F" transform="translate(77,58)"/>
<path d="M0 0 C-0.62431455 5.15562982 -1.73550208 10.01179393 -3.1875 15 C-4.92250429 21.08395461 -6.57561999 27.18053403 -8.14038086 33.31054688 C-10.68029415 43.25748546 -13.48219483 53.08665227 -16.52148438 62.89233398 C-18.60644047 69.63505857 -20.51138697 76.40068338 -22.2734375 83.234375 C-22.78319183 85.17473019 -23.3655847 87.0967541 -24 89 C-30.27 89 -36.54 89 -43 89 C-42.32387871 80.15724513 -41.03018456 71.49206292 -39.5625 62.75 C-38.02119552 53.52039991 -36.59805536 44.30596213 -35.44506836 35.02050781 C-35 32 -35 32 -34 29 C-33.56796119 25.56547296 -33.19143407 22.13070571 -32.83789062 18.6875 C-32.25459522 13.35722332 -31.25867826 8.21134269 -30 3 C-26.50126246 2.49089578 -23.00084399 1.994394 -19.5 1.5 C-18.02660156 1.28537109 -18.02660156 1.28537109 -16.5234375 1.06640625 C-10.95210838 0.28642017 -5.62506015 -0.160716 0 0 Z " fill="#4DC7A0" transform="translate(1070,70)"/>
<path d="M0 0 C5.03179035 3.80895789 9.81705468 8.60290736 11 15 C11.9018816 24.55537845 11.35368664 31.26212494 5.5625 38.89453125 C0.20986006 45.00631964 -6.68223018 47.47888985 -14.625 48.4375 C-23.65375813 47.26710543 -30.02742244 44.03569637 -36 37 C-40.32943323 29.86574577 -41.26276318 22.5026369 -39.41015625 14.4296875 C-37.10531613 7.48330298 -33.04151127 3.0438366 -27 -1 C-17.74685788 -5.58795194 -9.06848096 -4.64483171 0 0 Z " fill="#FAF1D8" transform="translate(461,515)"/>
<path d="M0 0 C5.82267098 5.83341392 8.95542983 11.54823904 9.375 19.8125 C9.18898544 27.55535589 5.88279621 33.83855288 0.7109375 39.49609375 C-4.73324708 44.28150714 -11.53457739 46.37910366 -18.71484375 46.28515625 C-25.04683221 45.49501068 -31.55450764 42.57250643 -36 38 C-40.8054075 31.70519719 -43.42260066 25.48127963 -42.875 17.5 C-41.57478774 8.7311266 -37.07684625 3.17088041 -30.1875 -2.1875 C-20.03483092 -7.96058634 -9.5032624 -6.63346534 0 0 Z " fill="#FAF1D8" transform="translate(324,586)"/>
<path d="M0 0 C5.48571644 4.60185319 9.13144236 10.78847923 10.23046875 17.87109375 C10.54924008 26.12089564 8.56362025 32.51362087 3.23046875 38.87109375 C-3.0812644 44.40388343 -9.63815804 47.16716224 -18.08203125 46.87109375 C-25.20130363 46.01052236 -30.90687761 43.13677109 -35.65625 37.71875 C-40.60225248 30.71291114 -42.45839805 24.25740092 -41.42578125 15.71484375 C-39.813262 8.72726035 -36.16543998 3.4893806 -30.33203125 -0.62890625 C-20.10413932 -6.63630367 -9.93899001 -6.58912374 0 0 Z " fill="#FAF1D8" transform="translate(716.76953125,516.12890625)"/>
<path d="M0 0 C6.00954857 5.92084674 8.89307475 11.9340063 9.375 20.375 C9.17273543 27.80822294 5.65465497 34.08811855 0.7109375 39.49609375 C-4.73324708 44.28150714 -11.53457739 46.37910366 -18.71484375 46.28515625 C-25.04683221 45.49501068 -31.55450764 42.57250643 -36 38 C-40.8054075 31.70519719 -43.42260066 25.48127963 -42.875 17.5 C-41.63310574 9.28656299 -37.47669026 3.11889356 -31 -2 C-20.69170002 -8.00035372 -9.61757029 -6.69738393 0 0 Z " fill="#FAF1D8" transform="translate(649,586)"/>
<path d="M0 0 C5.89143619 4.2885156 10.32989515 10.27093545 12.63671875 17.19140625 C13.57836362 25.27610004 12.35271643 31.50471389 7.63671875 38.19140625 C2.82246627 43.53945659 -2.62130093 47.68587982 -9.96484375 48.46875 C-18.60517168 48.76628195 -25.33117743 46.98130978 -31.7578125 41.0546875 C-36.67311816 35.35006268 -39.24472326 28.66055947 -39.36328125 21.19140625 C-38.66171214 12.90412119 -34.84978707 7.4991169 -28.92578125 1.87890625 C-20.2473292 -3.83617193 -9.31894545 -5.60699653 0 0 Z " fill="#FAF1D8" transform="translate(785.36328125,443.80859375)"/>
<path d="M0 0 C7.93972653 4.70790047 11.58282512 10.90739086 13.93359375 19.68359375 C14.0909345 28.4946756 12.03205717 34.71220013 5.99609375 41.18359375 C-0.66908834 47.50697163 -6.88265515 48.75511645 -15.84375 48.5390625 C-20.26597603 48.0416304 -23.36625473 46.67525481 -27.00390625 44.18359375 C-27.89078125 43.62671875 -28.77765625 43.06984375 -29.69140625 42.49609375 C-34.71587714 37.47162286 -38.09876569 30.75741318 -38.31640625 23.62109375 C-38.20754979 16.15354058 -35.88743924 9.83955764 -30.81640625 4.30859375 C-21.91959422 -3.6815368 -10.75248142 -5.5391571 0 0 Z " fill="#FAF1D8" transform="translate(461.00390625,583.81640625)"/>
<path d="M0 0 C6.01093859 5.19126515 10.05640812 11.05931142 11 19 C11.1223624 26.7632144 8.67111372 32.90713148 3.625 38.75 C-2.9218384 44.36157577 -8.62400578 47.35247044 -17.375 46.9375 C-25.38552528 45.96087432 -30.80512977 42.8261731 -35.9375 36.625 C-40.26143921 30.56948328 -41.90006447 24.44339033 -41 17 C-39.38886076 10.05450059 -35.63313812 3.58869101 -29.78515625 -0.578125 C-19.95904069 -6.26778925 -9.60725286 -6.40483524 0 0 Z " fill="#FAF1D8" transform="translate(322,516)"/>
<path d="M0 0 C5.61055324 3.98834908 9.24611072 9.35585472 11 16 C12.20004062 24.37764203 10.92357393 31.0758498 6 38 C1.07187884 43.79136189 -4.46297875 46.91512573 -12 48 C-19.65040713 48.2666051 -26.27179379 46.44372461 -31.9453125 41.203125 C-38.18216809 34.47045243 -40.68258011 28.27350367 -40.40625 19.0625 C-39.36294921 11.19761715 -35.29962815 5.29610139 -29.17578125 0.40625 C-19.62216472 -5.76843932 -9.92825814 -4.94219625 0 0 Z " fill="#FAF1D8" transform="translate(321,444)"/>
<path d="M0 0 C5.89143619 4.2885156 10.32989515 10.27093545 12.63671875 17.19140625 C13.55158661 25.36522568 12.05736997 32.55668971 7.12890625 39.234375 C2.38536806 44.40814107 -3.09150492 47.65514902 -10.1015625 48.53515625 C-18.64999509 48.81892165 -25.40741225 46.9003807 -31.7578125 41.05859375 C-36.28502326 35.79337053 -39.23906901 29.14729176 -39.36328125 22.19140625 C-38.66508775 13.36216766 -35.25953421 7.88785137 -28.92578125 1.87890625 C-20.2473292 -3.83617193 -9.31894545 -5.60699653 0 0 Z " fill="#FAF1D8" transform="translate(460.36328125,443.80859375)"/>
<path d="M0 0 C0.72509766 -0.02239746 1.45019531 -0.04479492 2.19726562 -0.06787109 C8.15774467 -0.04187268 11.72363553 1.84261492 15.9921875 6.12109375 C20.17548527 12.25933132 20.20885206 18.20804364 19.3125 25.4375 C16.77344581 36.88452085 11.3011097 47.82560654 1.3125 54.4375 C-0.01320478 54.79998548 -1.34624158 55.13764215 -2.6875 55.4375 C-1.20671012 45.70256405 0.78316328 36.09021148 2.82641602 26.46166992 C3.38041232 23.84947998 3.9297228 21.23633444 4.47851562 18.62304688 C4.8304559 16.95567146 5.18265965 15.28835164 5.53515625 13.62109375 C5.69871109 12.84301865 5.86226593 12.06494354 6.03077698 11.26329041 C6.67011702 8.2594546 7.34039456 5.35381632 8.3125 2.4375 C-1.2575 3.7575 -10.8275 5.0775 -20.6875 6.4375 C-21.3475 11.0575 -22.0075 15.6775 -22.6875 20.4375 C-23.27823185 23.13764681 -23.91370662 25.82907906 -24.625 28.5 C-24.97369466 29.83436449 -25.32133345 31.16900531 -25.66796875 32.50390625 C-25.8386084 33.15504395 -26.00924805 33.80618164 -26.18505859 34.47705078 C-27.45663862 39.43856081 -28.55839481 44.44206492 -29.6875 49.4375 C-31.6675 49.9325 -31.6675 49.9325 -33.6875 50.4375 C-38.42440218 42.34529211 -37.86550045 31.95492104 -35.625 23.0625 C-32.07036002 13.10950806 -24.81381769 7.1555788 -15.7109375 2.40625 C-10.61625005 0.28182434 -5.44850089 0.1058526 0 0 Z " fill="#263237" transform="translate(329.6875,82.5625)"/>
<path d="M0 0 C3.55150592 0.30441479 4.97138802 0.97593993 7.75 3.3125 C9.78634065 5.74479578 10.6577784 6.92000563 11 10 C12.03096802 10.16471802 12.03096802 10.16471802 13.08276367 10.33276367 C16.47928166 11.10962229 19.46372935 12.32193756 22.67578125 13.67578125 C23.3371106 13.95284912 23.99843994 14.22991699 24.67980957 14.51538086 C26.89252571 15.44348705 29.1024642 16.37803125 31.3125 17.3125 C32.88935931 17.97534794 34.46643197 18.63768854 36.04370117 19.29956055 C38.58977461 20.36808666 41.1356675 21.43702736 43.68086243 22.50764465 C50.52973675 25.38783907 57.3881281 28.24467572 64.25 31.09375 C66.35506792 31.96832848 68.46012977 32.84292159 70.56518555 33.7175293 C73.6437972 34.99653647 76.72255113 36.27519248 79.8019104 37.55239868 C85.55429662 39.93911173 91.29995353 42.34101703 97.03912354 44.75933838 C100.19695591 46.08252814 103.3629552 47.38509558 106.52880859 48.68896484 C108.6484615 49.57696564 110.76777528 50.46577644 112.88671875 51.35546875 C113.88580765 51.76146805 114.88489655 52.16746735 115.91426086 52.58576965 C116.82902695 52.97407455 117.74379303 53.36237946 118.6862793 53.76245117 C119.90241158 54.26696053 119.90241158 54.26696053 121.14311218 54.78166199 C123 56 123 56 123.76960754 58.1398468 C123.88365181 59.06062263 123.88365181 59.06062263 124 60 C119.70124451 63.05448801 115.40542888 65.27075153 110.5 67.22265625 C109.76771179 67.5205455 109.03542358 67.81843475 108.28094482 68.12535095 C106.6908817 68.77130503 105.09958559 69.4142306 103.50720215 70.05444336 C100.95191741 71.0818323 98.39989198 72.11695464 95.84863281 73.15429688 C93.12169688 74.26305619 90.39459651 75.37138622 87.66656494 76.47744751 C77.66743911 80.53268316 67.69366261 84.64883335 57.72216797 88.77145386 C54.8321708 89.96603468 51.94154373 91.15907919 49.05078125 92.35180664 C47.21612048 93.10947637 45.3814846 93.86720639 43.546875 94.625 C42.66584106 94.98843002 41.78480713 95.35186005 40.8770752 95.7263031 C36.41485217 97.57104221 31.96328912 99.43726464 27.52539062 101.33984375 C26.65070129 101.71351074 25.77601196 102.08717773 24.87481689 102.47216797 C23.21845197 103.18131843 21.56399592 103.8949499 19.9118042 104.61376953 C14.33287442 107 14.33287442 107 11 107 C11 123.5 11 140 11 157 C9.02 157 7.04 157 5 157 C5 140.5 5 124 5 107 C33.32690457 95.02787429 61.72577935 83.25527083 90.20703125 71.65625 C90.83812302 71.39922806 91.46921478 71.14220612 92.11943054 70.87739563 C95.00245124 69.7035064 97.88595947 68.53083993 100.77026367 67.36010742 C105.86897395 65.28845922 110.95137611 63.19104604 116 61 C116.1231589 58.60458594 116.1231589 58.60458594 115 56 C112.32808998 54.46834922 109.92502176 53.34711836 107.078125 52.2421875 C106.24719833 51.90127579 105.41627167 51.56036407 104.56016541 51.2091217 C101.79703232 50.07981884 99.02377304 48.97788019 96.25 47.875 C94.31463471 47.08882386 92.38015726 46.30045886 90.4465332 45.51000977 C87.41739012 44.27245112 84.38757491 43.03679122 81.35469055 41.8084259 C70.24611887 37.30912934 59.21802913 32.62404728 48.1875 27.9375 C45.49287533 26.79404823 42.79783836 25.65161047 40.10165405 24.51184082 C38.3677589 23.77791652 36.63516783 23.04090294 34.90396118 22.30065918 C30.29102632 20.33910013 25.65911209 18.47820069 20.96337891 16.72314453 C19.46584831 16.15002281 19.46584831 16.15002281 17.93806458 15.56532288 C16.02809152 14.8375913 14.11009279 14.13044935 12.18339539 13.44822693 C6.53996747 11.27367432 3.67984485 9.12443398 0.74259949 3.78916931 C0 2 0 2 0 0 Z " fill="#282A33" transform="translate(81,58)"/>
<path d="M0 0 C-1.45044926 9.47493639 -3.36076738 18.83378017 -5.34912109 28.20678711 C-5.87026202 30.66514965 -6.38659863 33.12448487 -6.90234375 35.58398438 C-8.70942523 44.16187699 -10.59019759 52.71526587 -12.6557312 61.23503113 C-13.75544638 65.80481436 -14.66373985 70.37657317 -15.5 75 C-16.59515748 81.04941632 -17.91724289 87.00632317 -19.37231445 92.97875977 C-21.26366193 100.86999645 -22.79708585 108.83256702 -24.33740234 116.79858398 C-24.53930176 117.83313721 -24.74120117 118.86769043 -24.94921875 119.93359375 C-25.12799561 120.86228271 -25.30677246 121.79097168 -25.4909668 122.74780273 C-26 125 -26 125 -27 127 C-28.65 127 -30.3 127 -32 127 C-32.23566321 120.06749543 -31.40268403 113.93549305 -29.92041016 107.17529297 C-29.69929062 106.13183716 -29.47817108 105.08838135 -29.25035095 104.01330566 C-28.52206742 100.58765066 -27.78076374 97.16496019 -27.0390625 93.7421875 C-26.52745595 91.35058985 -26.01659291 88.95883303 -25.50643921 86.56692505 C-24.43756949 81.56440486 -23.36278877 76.56320667 -22.28320312 71.56298828 C-20.90107958 65.16133818 -19.52900089 58.75759146 -18.16074562 52.3529644 C-16.85269972 46.23198666 -15.53989984 40.11203171 -14.2265625 33.9921875 C-13.97721577 32.82860592 -13.72786903 31.66502434 -13.47096634 30.46618271 C-12.76270343 27.16552806 -12.05109634 23.86561324 -11.33837891 20.56591797 C-11.13050247 19.59534454 -10.92262604 18.62477112 -10.70845032 17.62478638 C-7.64647869 3.50102098 -7.64647869 3.50102098 -4.5 1.0625 C-2 0 -2 0 0 0 Z " fill="#263137" transform="translate(663,69)"/>
<path d="M0 0 C1.98 0 3.96 0 6 0 C5.34525183 4.83542211 4.53314112 9.60225761 3.58203125 14.390625 C3.44447922 15.08384857 3.30692719 15.77707214 3.16520691 16.49130249 C2.71683968 18.74471639 2.26502787 20.99741817 1.8125 23.25 C1.656604 24.02865417 1.50070801 24.80730835 1.34008789 25.60955811 C-0.88546749 36.71038096 -3.2109087 47.78282646 -5.72924805 58.8215332 C-7.1475112 65.05973724 -8.47459275 71.30733842 -9.71875 77.58203125 C-10.16671561 79.80729678 -10.61592169 82.03230875 -11.06542969 84.25726318 C-11.34964339 85.68316173 -11.62788908 87.11026616 -11.89941406 88.53863525 C-14.25951091 100.94208284 -17.54565373 112.22508649 -27.69140625 120.4375 C-31.09901483 122.74383407 -34.00011795 123.98308083 -38 125 C-40.23046875 124.55859375 -40.23046875 124.55859375 -42 124 C-41.34773437 123.64808594 -40.69546875 123.29617187 -40.0234375 122.93359375 C-29.37434777 116.91795752 -24.61598169 110.36804474 -21.32748032 98.59165192 C-20.75364946 96.14817049 -20.23647413 93.69994717 -19.74169922 91.23925781 C-19.54925629 90.3208461 -19.35681335 89.40243439 -19.15853882 88.45619202 C-18.5321264 85.4568585 -17.91846435 82.45506714 -17.3046875 79.453125 C-16.86769203 77.35168006 -16.42978013 75.2504255 -15.99099731 73.14935303 C-14.84306562 67.64273392 -13.70545251 62.13403863 -12.57067871 56.62469482 C-10.7501348 47.7933478 -8.91507818 38.96501386 -7.07764053 30.13716888 C-6.43918313 27.06137066 -5.80590504 23.98454016 -5.17330933 20.90753174 C-4.78218159 19.01938056 -4.39092275 17.13125653 -3.99951172 15.24316406 C-3.73920166 13.96660698 -3.73920166 13.96660698 -3.47363281 12.66426086 C-2.5699588 8.32699457 -1.5091496 4.17770167 0 0 Z " fill="#253137" transform="translate(570,110)"/>
<path d="M0 0 C4.01686644 2.34317209 6.6930774 5.47711611 9.25 9.3125 C9.86040024 14.10593722 9.84039476 19.14534321 7.25 23.3125 C3.15701015 27.43573362 -0.01385461 29.99060054 -5.9375 30.6875 C-11.52059559 30.13834306 -15.40711788 27.89223086 -19.1796875 23.73828125 C-21.95041895 19.63950955 -22.12090105 16.19442765 -21.2890625 11.3828125 C-20.04893702 6.62001176 -17.41213821 3.31374053 -13.55859375 0.2578125 C-9.28405007 -1.97639824 -4.50781984 -1.12695496 0 0 Z " fill="#4DC8A0" transform="translate(1038.75,166.6875)"/>
<path d="M0 0 C4.30918575 3.003879 7.19232589 5.87497076 8.29296875 11.19921875 C8.71099238 16.34958538 7.95477442 19.3763626 4.625 23.375 C0.50080508 27.46620136 -2.25746794 28.6882227 -8.0625 29.25 C-12.54297107 29.09783306 -15.83263794 27.87404336 -19.1875 24.875 C-22.42432552 20.83826933 -23.5161978 16.95978674 -23.3125 11.8125 C-22.51524174 6.53269782 -20.24791261 3.26361685 -16.1875 -0.125 C-10.79923508 -3.30269469 -5.34969482 -3.09248158 0 0 Z " fill="#4DC7A0" transform="translate(875.1875,78.125)"/>
<path d="M0 0 C2.625 -0.1875 2.625 -0.1875 5 0 C4.8139704 4.55772522 4.4860555 6.79275006 1.125 9.9375 C-2.67850438 13.95834749 -3.13122798 18.56302836 -3.9609375 23.81323242 C-5.48275542 33.41860207 -8.96640337 42.07014041 -12.7734375 50.98046875 C-14.42060334 55.03543434 -15.75532228 59.1694565 -17.1015625 63.33203125 C-18.21553369 66.64004134 -19.62531766 69.79240787 -21 73 C-22.01283059 75.93639192 -22.98274769 78.88408973 -23.9375 81.83984375 C-25.2006317 85.59673178 -26.5958073 89.29412142 -28 93 C-28.46581826 94.25093963 -28.93068157 95.50223533 -29.39453125 96.75390625 C-31.96771522 103.67479079 -34.58639488 110.57523538 -37.3125 117.4375 C-37.56684814 118.08211182 -37.82119629 118.72672363 -38.08325195 119.39086914 C-39.88000788 123.88000788 -39.88000788 123.88000788 -41 125 C-42.66617115 125.04063832 -44.33388095 125.042721 -46 125 C-45.43742217 119.85737676 -44.22101375 115.37968533 -42.3125 110.5625 C-41.76673445 109.14720968 -41.2211671 107.73184293 -40.67578125 106.31640625 C-40.39686035 105.59984863 -40.11793945 104.88329102 -39.83056641 104.14501953 C-38.52527027 100.77396373 -37.26391895 97.38673493 -36 94 C-35.50023216 92.66657963 -35.0002316 91.33324646 -34.5 90 C-34.2525 89.34 -34.005 88.68 -33.75 88 C-31.5 82 -31.5 82 -30.74951172 79.9987793 C-30.25106793 78.66954174 -29.75269518 77.34027755 -29.25439453 76.01098633 C-27.9811748 72.6147622 -26.70660742 69.21905356 -25.4296875 65.82421875 C-22.93842779 59.19746793 -20.46904074 52.56434604 -18.0625 45.90625 C-16.4746657 41.56305619 -14.84176647 37.2369624 -13.21313477 32.90893555 C-11.76359945 29.05191514 -10.33519588 25.18870113 -8.9375 21.3125 C-7.44508065 17.19741904 -5.92337278 13.09438518 -4.375 9 C-3.97023438 7.9275 -3.56546875 6.855 -3.1484375 5.75 C-2 3 -2 3 0 0 Z " fill="#253036" transform="translate(856,71)"/>
<path d="M0 0 C1.134375 0.020625 2.26875 0.04125 3.4375 0.0625 C3.62217046 5.50131394 2.96688098 10.35370378 1.828125 15.6640625 C1.66004333 16.46355316 1.49196167 17.26304382 1.31878662 18.08676147 C0.96271761 19.76665315 0.6028115 21.44573565 0.23925781 23.12402344 C-0.31171345 25.68384566 -0.83989338 28.24771 -1.3671875 30.8125 C-1.71736732 32.45081698 -2.06888469 34.08884876 -2.421875 35.7265625 C-2.57622009 36.48812653 -2.73056519 37.24969055 -2.8895874 38.03433228 C-3.91038071 42.61774183 -5.18674584 45.61584034 -8.5625 49.0625 C-11.21646639 50.52218151 -12.73578805 51.15698137 -15.75 50.8125 C-17.5625 50.0625 -17.5625 50.0625 -19.5625 48.0625 C-21.17878607 33.46488474 -18.23251365 18.18446352 -9.5625 6.0625 C-7.98023862 4.22689902 -6.38048982 2.67849095 -4.5625 1.0625 C-3.5625 0.0625 -3.5625 0.0625 0 0 Z " fill="#383F47" transform="translate(452.5625,124.9375)"/>
<path d="M0 0 C1.65 0 3.3 0 5 0 C4.34774541 6.77234554 3.24219457 13.3378461 1.875 20 C1.66125732 21.05582275 1.44751465 22.11164551 1.22729492 23.19946289 C-0.97893053 34.03136836 -3.27742107 44.84431483 -5.58837891 55.65429688 C-7.36672197 63.97093041 -7.36672197 63.97093041 -9.04296875 72.30859375 C-10.06107442 77.45923165 -11.32882831 82.53827972 -12.625 87.625 C-12.85445313 88.53378906 -13.08390625 89.44257813 -13.3203125 90.37890625 C-13.8780208 92.58650161 -14.43793913 94.7935096 -15 97 C-16.9375 97.5625 -16.9375 97.5625 -19 98 C-20.5314351 96.4685649 -20.15123529 95.08077566 -20.15705872 92.95240784 C-20.10257209 88.40225404 -19.45970345 84.19518693 -18.48706055 79.76147461 C-18.32606873 78.99272507 -18.1650769 78.22397552 -17.99920654 77.43193054 C-17.47068222 74.92007151 -16.92909043 72.41124603 -16.38671875 69.90234375 C-16.01214097 68.14088399 -15.63819427 66.37928991 -15.2648468 64.61756897 C-14.48286431 60.93739051 -13.69462176 57.25862807 -12.90161133 53.58081055 C-11.88915015 48.88370294 -10.89034399 44.1838213 -9.89596844 39.4828558 C-9.12601152 35.84858513 -8.34984391 32.21566303 -7.57172585 28.58313179 C-7.20130721 26.85125608 -6.83254511 25.11902516 -6.46552086 23.38642693 C-5.95017715 20.95929892 -5.42673183 18.53405379 -4.90112305 16.10913086 C-4.75294632 15.40397339 -4.60476959 14.69881592 -4.45210266 13.97229004 C-3.38676117 9.11395229 -1.82926871 4.62645311 0 0 Z " fill="#263137" transform="translate(411,78)"/>
<path d="M0 0 C1.98 0 3.96 0 6 0 C5.44091935 2.292543 4.87768124 4.5839588 4.3125 6.875 C3.99925781 8.15117188 3.68601562 9.42734375 3.36328125 10.7421875 C1.84641479 16.70514721 0.17269081 22.62492514 -1.48168945 28.55078125 C-2.9154623 33.68835234 -4.33441553 38.82995364 -5.75187683 43.9720459 C-7.0758253 48.77345381 -8.4033198 53.57387853 -9.73095703 58.37426758 C-10.41863997 60.86320532 -11.10513582 63.3524713 -11.79052734 65.84204102 C-12.78954121 69.46977795 -13.79277079 73.09632545 -14.796875 76.72265625 C-15.10413513 77.84221207 -15.41139526 78.96176788 -15.72796631 80.11524963 C-16.0120636 81.13819626 -16.29616089 82.16114288 -16.58886719 83.21508789 C-16.83803894 84.11787979 -17.08721069 85.02067169 -17.34393311 85.95082092 C-18 88 -18 88 -19 89 C-20.66617115 89.04063832 -22.33388095 89.042721 -24 89 C-23.43877471 82.939961 -22.48748166 77.29891565 -20.875 71.4375 C-20.66053223 70.63884521 -20.44606445 69.84019043 -20.22509766 69.01733398 C-18.09976575 61.18680958 -15.81675746 53.40038833 -13.49951172 45.62475586 C-11.75242235 39.73146156 -10.1727694 33.81890014 -8.70556641 27.84985352 C-7.69761397 23.77863246 -6.6123051 19.73126726 -5.5 15.6875 C-5.30019531 14.94177734 -5.10039063 14.19605469 -4.89453125 13.42773438 C-3.60753143 8.75108854 -2.00718966 4.41698423 0 0 Z " fill="#263137" transform="translate(1071,70)"/>
<path d="M0 0 C0.43704189 5.88108057 0.86369532 11.76280202 1.28173828 17.64526367 C1.42456264 19.63601791 1.56996797 21.62658907 1.71826172 23.61694336 C2.5145361 34.32872968 3.15670163 45.02647655 3.28125 55.76953125 C3.30070679 56.65581711 3.32016357 57.54210297 3.34020996 58.45524597 C3.34202271 59.27285904 3.34383545 60.09047211 3.34570312 60.93286133 C3.35186646 61.64855789 3.35802979 62.36425446 3.36437988 63.10163879 C2.8951433 65.54628671 1.79192096 66.33461646 0 68 C-0.7177611 70.72400165 -0.7177611 70.72400165 -1.1875 73.75 C-2.48976158 79.35922046 -4.22495721 82.20765653 -8.80859375 85.66015625 C-16.65704094 90.45876122 -16.65704094 90.45876122 -21.234375 89.5625 C-22.10835937 89.2840625 -22.10835937 89.2840625 -23 89 C-22.34773437 88.64808594 -21.69546875 88.29617187 -21.0234375 87.93359375 C-13.0636916 83.43715912 -7.74254187 79.1916336 -4.59985352 70.3828125 C-3.42159102 65.70237216 -3.60930108 60.98514851 -3.6875 56.1875 C-3.69587891 55.06182617 -3.70425781 53.93615234 -3.71289062 52.77636719 C-3.84450225 43.26084697 -4.49865404 33.80674289 -5.28344727 24.32568359 C-5.92537576 16.51969449 -6.2607028 8.83556749 -6 1 C-4 0 -4 0 0 0 Z " fill="#252C34" transform="translate(1020,105)"/>
<path d="M0 0 C1.98 0 3.96 0 6 0 C5.16829424 6.90721487 3.61273938 13.64664596 2.125 20.4375 C-0.0782772 30.60178624 -2.16632098 40.76297076 -4 51 C-4.20496094 52.07636719 -4.40992188 53.15273437 -4.62109375 54.26171875 C-4.80800781 55.24785156 -4.99492187 56.23398438 -5.1875 57.25 C-5.34605469 58.08015625 -5.50460937 58.9103125 -5.66796875 59.765625 C-6.09799156 62.28294051 -6.09799156 62.28294051 -6 66 C-8.375 66.625 -8.375 66.625 -11 67 C-13 65 -13 65 -13.27099609 62.11547852 C-13.10677161 56.69423797 -11.80750879 51.43431473 -10.6640625 46.15234375 C-10.30494278 44.45725426 -10.30494278 44.45725426 -9.93856812 42.72792053 C-9.43245659 40.34613636 -8.92291406 37.96507898 -8.41015625 35.5847168 C-7.62728929 31.94813423 -6.85574226 28.30928942 -6.0859375 24.66992188 C-5.59181114 22.35142061 -5.09704113 20.0330564 -4.6015625 17.71484375 C-4.256129 16.08807961 -4.256129 16.08807961 -3.90371704 14.42845154 C-2.84118054 9.5133754 -1.74609268 4.72870405 0 0 Z " fill="#263237" transform="translate(489,110)"/>
<path d="M0 0 C1.65 0 3.3 0 5 0 C4.4054059 6.380698 3.32047673 12.40378763 1.8125 18.625 C0.19930041 25.45391117 -1.28214332 32.29492727 -2.59375 39.1875 C-2.72670975 39.88579926 -2.85966949 40.58409851 -2.99665833 41.30355835 C-3.65574713 44.78083295 -4.30447048 48.25981801 -4.9440918 51.74072266 C-5.18297119 53.0147998 -5.42185059 54.28887695 -5.66796875 55.6015625 C-5.87703857 56.73932129 -6.0861084 57.87708008 -6.30151367 59.04931641 C-6.92111136 61.66674306 -7.67049333 63.67947091 -9 66 C-10.65 65.67 -12.3 65.34 -14 65 C-14.33975549 58.48004016 -13.05735602 52.51117112 -11.69921875 46.15234375 C-11.34365654 44.45725426 -11.34365654 44.45725426 -10.98091125 42.72792053 C-10.47916348 40.34610697 -9.97381341 37.96504976 -9.46508789 35.5847168 C-8.68990062 31.94875993 -7.93116915 28.30963254 -7.17382812 24.66992188 C-6.68328169 22.35135282 -6.19177736 20.03298617 -5.69921875 17.71484375 C-5.36152718 16.08807961 -5.36152718 16.08807961 -5.01701355 14.42845154 C-3.8858074 9.1939272 -2.71943639 4.63246738 0 0 Z " fill="#263237" transform="translate(879,110)"/>
<path d="M0 0 C1.65 0 3.3 0 5 0 C5.30500802 10.67122458 5.58416705 21.34268797 5.81924438 32.01570129 C5.91097696 36.17720691 6.00642571 40.33827 6.12792969 44.49902344 C6.91298729 71.772787 6.91298729 71.772787 1 84 C0.67 84 0.34 84 0 84 C0 56.28 0 28.56 0 0 Z " fill="#242C33" transform="translate(754,71)"/>
<path d="M0 0 C1.65 0 3.3 0 5 0 C2.83459211 21.95275583 -3.05239094 43.54576604 -8 65 C-9.9375 65.5625 -9.9375 65.5625 -12 66 C-13.58420928 64.41579072 -13.17333232 62.81863485 -13.19262695 60.62353516 C-13.13060702 54.90946611 -12.14255898 49.58901759 -10.91796875 44.0234375 C-10.59570061 42.50830063 -10.59570061 42.50830063 -10.266922 40.96255493 C-9.81359819 38.84215319 -9.35533063 36.72280286 -8.89233398 34.60449219 C-8.18848399 31.37950856 -7.50224787 28.15114396 -6.81835938 24.921875 C-6.37343183 22.85133961 -5.92750211 20.78101926 -5.48046875 18.7109375 C-5.27721481 17.7555307 -5.07396088 16.8001239 -4.86454773 15.81576538 C-3.65445402 10.32084608 -2.10754385 5.21893505 0 0 Z " fill="#263137" transform="translate(531,110)"/>
<path d="M0 0 C1.98 0 3.96 0 6 0 C6.0931111 8.93681822 6.16397173 17.87346677 6.20724869 26.81066608 C6.22803052 30.96159948 6.25617348 35.11219846 6.30175781 39.26293945 C6.3455548 43.27652919 6.36920763 47.28979939 6.37950897 51.30360985 C6.38684017 52.82687591 6.40115459 54.35012658 6.42292023 55.87325478 C6.54727987 64.94523125 5.9188368 72.67264538 2 81 C1.67 81 1.34 81 1 81 C-0.20994726 24.3022023 -0.20994726 24.3022023 0 0 Z " fill="#242A32" transform="translate(809,71)"/>
<path d="M0 0 C-0.480147 2.49676442 -1.16267838 4.29278161 -2.40820312 6.53442383 C-4.40883251 10.89008857 -5.25742449 15.13604573 -6.15625 19.82421875 C-6.43885681 21.23729057 -6.43885681 21.23729057 -6.72717285 22.6789093 C-7.32625998 25.68022475 -7.91384462 28.68363461 -8.5 31.6875 C-9.27615677 35.62992923 -10.05752228 39.57128577 -10.84375 43.51171875 C-11.0298584 44.44619843 -11.2159668 45.3806781 -11.40771484 46.34347534 C-12.67898662 52.63944882 -14.11309744 58.85554232 -16 65 C-17.65 65 -19.3 65 -21 65 C-21.23459301 58.09645145 -20.41473273 51.99746209 -18.91796875 45.26953125 C-18.70312332 44.27547775 -18.48827789 43.28142426 -18.266922 42.25724792 C-17.81327485 40.16960977 -17.35500578 38.08297109 -16.89233398 35.99731445 C-16.18784887 32.81407639 -15.50213083 29.62719714 -14.81835938 26.43945312 C-14.37350967 24.40340216 -13.92758288 22.36758615 -13.48046875 20.33203125 C-13.27721481 19.3850386 -13.07396088 18.43804596 -12.86454773 17.46235657 C-8.9471887 0 -8.9471887 0 0 0 Z " fill="#253136" transform="translate(925,130)"/>
<path d="M0 0 C5.90309818 0.36141417 9.73861225 1.81244817 14 6 C18.40936244 11.25232879 18.74666029 17.40696629 18.60546875 24.04296875 C17.86197653 32.10353357 15.54754732 40.02094233 13.4909668 47.83276367 C13.17426025 49.04295166 12.85755371 50.25313965 12.53125 51.5 C12.23798828 52.5828125 11.94472656 53.665625 11.64257812 54.78125 C10.94793578 58.26079584 10.89051843 61.46084074 11 65 C8.625 65.625 8.625 65.625 6 66 C4 64 4 64 3.7265625 61.01953125 C3.87160646 56.09948737 5.16184819 51.4344676 6.375 46.6875 C12.05963842 26.69008437 12.05963842 26.69008437 8 7 C5.60140956 4.66369252 5.60140956 4.66369252 3 3 C1.9826127 2.01769502 0.97403883 1.02530403 0 0 Z " fill="#252E35" transform="translate(943,110)"/>
<path d="M0 0 C8.12779566 0.30102947 14.1206194 3.41120971 20.0859375 8.9296875 C25.47190179 14.77016355 28.53520795 20.44550813 28.22265625 28.50390625 C27.54441262 36.10737427 25.99156034 43.5306889 24.1875 50.9375 C23.89230469 52.16339844 23.59710938 53.38929687 23.29296875 54.65234375 C21.80922966 58.49392805 20.06988575 60.30109742 17 63 C16.40058594 63.59683594 15.80117188 64.19367188 15.18359375 64.80859375 C9.75106994 69.87651864 3.73078437 72.93749311 -3 76 C-3.33 75.01 -3.66 74.02 -4 73 C-3.28714844 72.5875 -2.57429688 72.175 -1.83984375 71.75 C9.92369277 64.65704662 18.02714351 55.05693994 21.66796875 41.515625 C23.12986803 30.43958809 22.63457941 21.37310794 16 12 C11.4510375 6.83327716 6.23294406 3.78256431 0 1 C0 0.67 0 0.34 0 0 Z " fill="#252F35" transform="translate(349,72)"/>
<path d="M0 0 C0.33 0 0.66 0 1 0 C1.75826173 11.47221913 0.63698484 19.64082415 -4.19189453 30.13085938 C-5.56338427 33.30310271 -6.58178124 36.58329433 -7.625 39.875 C-9.17832449 44.65407821 -10.88697886 49.18832294 -13.0234375 53.73046875 C-14.68331063 57.5880139 -15.90020904 61.59348829 -17.16796875 65.59375 C-18 68 -18 68 -19 69 C-20.66617115 69.04063832 -22.33388095 69.042721 -24 69 C-23.60807299 63.61100367 -22.55819963 59.72511487 -20.23828125 54.8828125 C-18.26108974 50.27976097 -16.79442648 45.50789005 -15.2824707 40.73486328 C-13.79356613 36.11315001 -12.0285542 31.74540367 -10.01269531 27.33007812 C-8.22766118 23.22295041 -6.8171342 18.98706687 -5.375 14.75 C-1.76075668 4.21884273 -1.76075668 4.21884273 0 0 Z " fill="#263237" transform="translate(779,127)"/>
<path d="M0 0 C0.33 0 0.66 0 1 0 C1.01981934 1.24499268 1.03963867 2.48998535 1.06005859 3.77270508 C1.13672963 8.43777043 1.22534694 13.10254857 1.31738281 17.76733398 C1.35542054 19.77769253 1.390315 21.78811331 1.421875 23.79858398 C1.58499942 34.06267816 1.76615512 43.94175697 4 54 C4.23216339 56.12058516 4.4283651 58.24596522 4.5625 60.375 C4.6346875 61.4578125 4.706875 62.540625 4.78125 63.65625 C4.8534375 64.7596875 4.925625 65.863125 5 67 C5.18582189 69.29180335 5.37329141 71.58347377 5.5625 73.875 C5.90648103 78.26737312 6 82.5940521 6 87 C6.2475 88.2375 6.2475 88.2375 6.5 89.5 C7.13861448 92.69307239 7.06366809 95.75292759 7 99 C5.49440461 97.03617993 4.10868317 95.21736634 3 93 C1.77413751 98.81957493 1.77670429 104.60268425 1.68359375 110.5234375 C1.66281265 111.62475006 1.64203156 112.72606262 1.62062073 113.86074829 C1.5554381 117.36543773 1.49638603 120.87019966 1.4375 124.375 C1.39428502 126.7565178 1.35066978 129.13802837 1.30664062 131.51953125 C1.19978888 137.3462784 1.09796533 143.17309703 1 149 C0.67 149 0.34 149 0 149 C0 99.83 0 50.66 0 0 Z " fill="#C28265" transform="translate(63,66)"/>
<path d="M0 0 C1.4540625 0.0309375 1.4540625 0.0309375 2.9375 0.0625 C2.55078125 0.55878906 2.1640625 1.05507812 1.765625 1.56640625 C1.24484375 2.24574219 0.7240625 2.92507812 0.1875 3.625 C-0.32296875 4.28628906 -0.8334375 4.94757813 -1.359375 5.62890625 C-5.5343345 11.59450205 -8.00210674 17.11240105 -9.8125 24.125 C-10.0285791 24.9512085 -10.2446582 25.77741699 -10.46728516 26.62866211 C-12.18643637 33.65248712 -14.42874324 43.33001353 -11.0625 50.0625 C-13.375 50.75 -13.375 50.75 -16.0625 51.0625 C-17.69921875 50.0625 -17.69921875 50.0625 -19.0625 48.0625 C-19.42537649 45.39233383 -19.58541697 43.04646444 -19.5625 40.375 C-19.55822998 39.62476563 -19.55395996 38.87453125 -19.54956055 38.1015625 C-19.1881398 25.90265462 -15.00101805 11.9257871 -6.3125 3.0625 C-5.57 2.4025 -4.8275 1.7425 -4.0625 1.0625 C-3.0625 0.0625 -3.0625 0.0625 0 0 Z " fill="#253237" transform="translate(452.0625,124.9375)"/>
<path d="M0 0 C3.61046682 3.36976904 5.74024793 5.82533151 6.3359375 10.8125 C6.48414446 22.9061879 3.21455475 33.22068027 -4 43 C-6.875 45.625 -6.875 45.625 -9 47 C-8.34547203 42.06070845 -7.46854924 37.21259689 -6.40625 32.34375 C-6.17887146 31.2848053 -6.17887146 31.2848053 -5.94689941 30.20446777 C-5.30522612 27.2164339 -4.65798049 24.22961418 -4.01123047 21.24267578 C-3.5367909 19.0476148 -3.06521503 16.85195146 -2.59375 14.65625 C-2.44893188 13.99250366 -2.30411377 13.32875732 -2.15490723 12.64489746 C-1.25260016 8.4409487 -0.56437217 4.25894508 0 0 Z " fill="#384248" transform="translate(343,87)"/>
<path d="M0 0 C1.98 0 3.96 0 6 0 C5.53200738 8.82261599 3.86011499 17.26696731 1.98876953 25.87402344 C1.49370822 28.15397613 1.00987171 30.43611522 0.52734375 32.71875 C0.21679222 34.16940936 -0.09438198 35.61993559 -0.40625 37.0703125 C-0.55106812 37.75247833 -0.69588623 38.43464417 -0.84509277 39.13748169 C-1.88419966 43.88419966 -1.88419966 43.88419966 -3 45 C-4.66617115 45.04063832 -6.33388095 45.042721 -8 45 C-8.18791405 39.08070737 -7.5626026 33.8860684 -6.25 28.125 C-6.07243164 27.31506592 -5.89486328 26.50513184 -5.71191406 25.6706543 C-5.14908722 23.11196827 -4.57475707 20.55602957 -4 18 C-3.6138167 16.25407565 -3.22839262 14.50798318 -2.84375 12.76171875 C-1.90459667 8.50581917 -0.95512584 4.25234217 0 0 Z " fill="#253136" transform="translate(324,150)"/>
<path d="M0 0 C-0.59941002 3.31137485 -1.72079655 5.13139292 -3.875 7.6875 C-10.95202648 17.01012142 -10.57309556 26.74748908 -10 38 C-9.70608798 40.00617219 -9.38859854 42.00999943 -9 44 C-10.98 44 -12.96 44 -15 44 C-19.24003574 36.57993745 -19.16042569 28.15307681 -17.30859375 19.9296875 C-14.92914507 12.7813856 -9.07273456 0 0 0 Z " fill="#263237" transform="translate(723,89)"/>
<path d="M0 0 C0.33 0 0.66 0 1 0 C1.97493749 6.58082805 2.21597116 13.03911496 2.25 19.6875 C2.270625 20.70650391 2.29125 21.72550781 2.3125 22.77539062 C2.36144868 32.13070656 2.36144868 32.13070656 -1 36 C-4.6262687 38.0581525 -7.87039014 38.53864476 -12 38 C-13.875 36 -13.875 36 -15 34 C-13.88625 33.566875 -12.7725 33.13375 -11.625 32.6875 C-7.82487666 31.30088881 -7.82487666 31.30088881 -6 28 C-5.72122601 25.85056665 -5.72122601 25.85056665 -5.8125 23.5625 C-5.81894531 22.80066406 -5.82539062 22.03882813 -5.83203125 21.25390625 C-5.91197788 19.02642472 -5.91197788 19.02642472 -6.60009766 17.08862305 C-7.29438194 13.46249239 -5.15610761 10.42521063 -3.5625 7.25 C-3.05493164 6.20392578 -3.05493164 6.20392578 -2.53710938 5.13671875 C-1.70193542 3.41931879 -0.85234576 1.70894262 0 0 Z " fill="#263439" transform="translate(986,141)"/>
<path d="M0 0 C2.94606829 0.13702643 5.20159518 0.29875555 7.4765625 2.296875 C11.9847888 7.6223821 12.10870846 11.36878372 12 18 C7.42605344 20.36074661 3.03477403 20.59177381 -2 20 C-4.5625 18.875 -4.5625 18.875 -6 17 C-6.4557692 13.87472551 -6.6795709 11.94654518 -4.796875 9.32421875 C-2.37084019 7.53633657 -0.79122294 7.69644586 2.1875 7.8125 C3.53908203 7.85310547 3.53908203 7.85310547 4.91796875 7.89453125 C5.60503906 7.92933594 6.29210937 7.96414063 7 8 C4.7439092 4.53955721 4.7439092 4.53955721 0.8125 3.25 C-0.115625 3.1675 -1.04375 3.085 -2 3 C-1.34 2.01 -0.68 1.02 0 0 Z " fill="#49BC96" transform="translate(668,329)"/>
<path d="M0 0 C0.66 0.33 1.32 0.66 2 1 C3.96646531 7.00864401 4.2346018 12.85291766 4.3125 19.125 C4.33884521 20.27053345 4.33884521 20.27053345 4.36572266 21.43920898 C4.35917375 27.49105615 3.04789915 31.87939178 -0.3125 37 C-2 38 -2 38 -4.875 37.9375 C-8.43548003 36.86935599 -10.37822643 35.62177357 -13 33 C-13.8125 30.75 -13.8125 30.75 -14 29 C-11.75946342 30.04024912 -9.92558087 31.06046554 -8 32.625 C-5.85514888 34.37768588 -5.85514888 34.37768588 -2 34 C-0.37150031 29.64409432 0.34118446 25.76065388 0.625 21.125 C0.69976562 19.97257812 0.77453125 18.82015625 0.8515625 17.6328125 C0.90054687 16.76398438 0.94953125 15.89515625 1 15 C0.401875 15.32226562 -0.19625 15.64453125 -0.8125 15.9765625 C-3.76410179 17.35749048 -5.7757958 17.40302552 -9 17 C-12.3131156 14.5151633 -13.89329678 11.96568655 -15 8 C-15.07646165 5.6679198 -15.09143299 3.33154122 -15 1 C-14.34 1 -13.68 1 -13 1 C-11.68 4.96 -10.36 8.92 -9 13 C-7.35 13.33 -5.7 13.66 -4 14 C-3.01 13.34 -2.02 12.68 -1 12 C-0.41518879 9.11404054 -0.41518879 9.11404054 -0.3125 5.875 C-0.24675781 4.77929688 -0.18101562 3.68359375 -0.11328125 2.5546875 C-0.07589844 1.71164062 -0.03851563 0.86859375 0 0 Z " fill="#49C09A" transform="translate(375,331)"/>
<path d="M0 0 C2 3 2 3 2 5.4375 C0.56711513 9.10926747 -1.6057453 10.13648762 -5 12 C-7.375 12.75 -7.375 12.75 -9 13 C-7.13022903 15.44710376 -6.17497517 15.96931493 -3.08203125 16.51171875 C-1.46361328 16.59873047 -1.46361328 16.59873047 0.1875 16.6875 C1.27417969 16.75324219 2.36085938 16.81898438 3.48046875 16.88671875 C4.72763672 16.94279297 4.72763672 16.94279297 6 17 C5.67 17.66 5.34 18.32 5 19 C1.25359813 20.24880062 -2.11593861 20.62291551 -6 20 C-9.42215793 18.07114735 -11.46291808 16.66857474 -12.6953125 12.83984375 C-13.28683771 9.07044371 -13.25447369 6.62948755 -11.8125 3.0625 C-8.12010444 -1.1391915 -5.39687608 -1.52520411 0 0 Z " fill="#46B191" transform="translate(714,329)"/>
<path d="M0 0 C1.8125 1.125 1.8125 1.125 3 3 C3.4375 6 3.4375 6 3 9 C0.16746984 12.15936057 -2.89696842 12.53374641 -7 13 C-6.67 13.99 -6.34 14.98 -6 16 C-3.29816945 17.35091528 -0.88191794 17.33858058 2.125 17.5625 C3.76855469 17.68818359 3.76855469 17.68818359 5.4453125 17.81640625 C6.70988281 17.90728516 6.70988281 17.90728516 8 18 C4.64603677 20.82360378 2.43371396 21.46772904 -2.03515625 21.29296875 C-4.90255105 20.86542479 -6.74748013 19.78876578 -9 18 C-11.6790573 13.98141405 -11.69610694 10.72358279 -11 6 C-7.99647544 1.1943607 -5.6852185 -0.55465546 0 0 Z " fill="#49BC97" transform="translate(391,328)"/>
<path d="M0 0 C4.46913281 4.46913281 3.21372527 14.07618941 3.25 20.125 C3.270625 20.99253906 3.29125 21.86007812 3.3125 22.75390625 C3.34411309 27.94635587 2.88701715 31.50129852 0 36 C-0.66 36.66 -1.32 37.32 -2 38 C-7.54347336 37.87401197 -10.22492402 35.77507598 -14 32 C-14 31.01 -14 30.02 -14 29 C-13.01 29.33 -12.02 29.66 -11 30 C-11 30.66 -11 31.32 -11 32 C-7.48966871 33.68630119 -7.48966871 33.68630119 -3.6875 33.625 C-3.130625 33.41875 -2.57375 33.2125 -2 33 C-0.01401507 27.04204521 0.57045059 21.25107435 1 15 C0.40058594 15.32097656 -0.19882812 15.64195312 -0.81640625 15.97265625 C-3.81330516 17.38264626 -5.72042537 17.46851066 -9 17 C-12.10164769 14.44975635 -13.72566416 12.82300753 -15 9 C-15.12781786 6.32605036 -15.04391871 3.67904143 -15 1 C-14.34 1 -13.68 1 -13 1 C-12.86722656 1.60328125 -12.73445312 2.2065625 -12.59765625 2.828125 C-12.42105469 3.62734375 -12.24445312 4.4265625 -12.0625 5.25 C-11.88847656 6.03890625 -11.71445312 6.8278125 -11.53515625 7.640625 C-11.052444 9.76878703 -10.53836822 11.88532842 -10 14 C-5.91826409 14.38954547 -5.91826409 14.38954547 -2.30859375 12.80859375 C-0.55025407 10.37841086 -0.72809474 8.8390297 -0.875 5.875 C-0.94560869 4.25100015 -0.99417375 2.62552366 -1 1 C-0.67 0.67 -0.34 0.34 0 0 Z " fill="#49BE96" transform="translate(697,331)"/>
<path d="M0 0 C4.23680777 0.24922399 6.4538651 0.5407502 9.75 3.3125 C10.4925 4.199375 11.235 5.08625 12 6 C12.79857422 6.92232422 12.79857422 6.92232422 13.61328125 7.86328125 C16.06555733 11.64185876 15.618 15.66026667 15 20 C12.81428787 24.37142427 10.13382634 27.37854915 6 30 C3.1875 30.25 3.1875 30.25 1 30 C1.42152344 29.54109375 1.84304688 29.0821875 2.27734375 28.609375 C3.09912109 27.68898437 3.09912109 27.68898437 3.9375 26.75 C4.48277344 26.14671875 5.02804687 25.5434375 5.58984375 24.921875 C8.75234351 20.61176453 8.507887 15.14351016 8 10 C6.20231129 5.8369314 3.27216385 3.09529013 0 0 Z " fill="#252D34" transform="translate(1039,166)"/>
<path d="M0 0 C4.92289989 0.43437352 7.48750825 2.643619 11 6 C13.69104152 9.54728201 13.52140796 13.72114416 13 18 C11.14253804 23.26280887 8.46719523 25.87296334 4 29 C1.125 29.8125 1.125 29.8125 -1 30 C0.21006355 27.13984979 1.37961022 25.62038978 3.625 23.375 C6.56816992 19.93402389 6.65226329 16.81158631 6.43359375 12.3984375 C5.80545333 8.92385898 4.19680722 6.71370303 2 4 C1.30570621 2.6808418 0.62469505 1.35350594 0 0 Z " fill="#242D34" transform="translate(876,77)"/>
<path d="M0 0 C3.94447582 1.33593001 7.05561906 3.05561906 10 6 C10.5 8.875 10.5 8.875 10 12 C6.54812814 14.97021532 3.51999163 16.46823628 -1 17 C-1 19.31 -1 21.62 -1 24 C-1.66 24 -2.32 24 -3 24 C-4.72293135 19.53665816 -5.22240791 15.89798769 -5.125 11.125 C-5.10695313 9.97257812 -5.08890625 8.82015625 -5.0703125 7.6328125 C-5.03550781 6.32957031 -5.03550781 6.32957031 -5 5 C-4.34 5 -3.68 5 -3 5 C-2.67 7.64 -2.34 10.28 -2 13 C1.465 12.505 1.465 12.505 5 12 C5.33 10.35 5.66 8.7 6 7 C0.75117306 3.82307843 -4.01488629 3.34302035 -10 3 C-10.99 4.485 -10.99 4.485 -12 6 C-12.66 6 -13.32 6 -14 6 C-13.625 3.5625 -13.625 3.5625 -13 1 C-9.04480225 -0.97759887 -4.30915255 -0.43497502 0 0 Z " fill="#49BA95" transform="translate(324,325)"/>
<path d="M0 0 C3.07502447 1.25766525 6.03102471 2.58557969 7.82421875 5.43359375 C8.32421875 8.37109375 8.32421875 8.37109375 7.82421875 11.43359375 C4.51320666 15.03675397 1.63263745 15.98629899 -3.17578125 16.43359375 C-3.17578125 18.74359375 -3.17578125 21.05359375 -3.17578125 23.43359375 C-3.83578125 23.43359375 -4.49578125 23.43359375 -5.17578125 23.43359375 C-6.44160344 19.56635744 -6.28765775 15.70208113 -6.23828125 11.68359375 C-6.23376953 10.98621094 -6.22925781 10.28882813 -6.22460938 9.5703125 C-6.21288145 7.85803572 -6.19494778 6.14580342 -6.17578125 4.43359375 C-5.51578125 4.43359375 -4.85578125 4.43359375 -4.17578125 4.43359375 C-3.84578125 7.07359375 -3.51578125 9.71359375 -3.17578125 12.43359375 C0.95395503 11.86619507 0.95395503 11.86619507 4.82421875 10.43359375 C4.49421875 8.78359375 4.16421875 7.13359375 3.82421875 5.43359375 C-4.00330885 2.65299749 -4.00330885 2.65299749 -12.17578125 2.43359375 C-14.05468559 3.80865474 -14.05468559 3.80865474 -15.17578125 5.43359375 C-15.17578125 3.78359375 -15.17578125 2.13359375 -15.17578125 0.43359375 C-10.82917057 -1.73971159 -4.61820369 -1.20222538 0 0 Z " fill="#4ABE95" transform="translate(647.17578125,325.56640625)"/>
<path d="M0 0 C2.125 -0.375 2.125 -0.375 5 0 C8.36998383 2.53958111 10.65999237 4.9799771 12 9 C12.03954234 11.33299825 12.04401732 13.66708189 12 16 C11.13375 15.175 10.2675 14.35 9.375 13.5 C6.9279167 11.45787138 6.10611533 11.01456485 2.8125 10.5625 C-0.19906993 10.82922363 -0.19906993 10.82922363 -3 13 C-3 13.66 -3 14.32 -3 15 C-0.16730334 16.41634833 2.47466438 16.3463005 5.625 16.5625 C6.81351562 16.64628906 8.00203125 16.73007812 9.2265625 16.81640625 C10.59941406 16.90728516 10.59941406 16.90728516 12 17 C11 19 11 19 9.4375 19.625 C4.27142992 20.41978001 0.57183789 20.88415881 -4 18.3125 C-6 16 -6 16 -6.5625 13.4375 C-6 11 -6 11 -4.5625 9.1875 C-0.75630517 7.42365362 2.87178296 7.76183363 7 8 C6.22236202 5.98562946 6.22236202 5.98562946 5 4 C1.94091587 3.18415432 1.94091587 3.18415432 -1 3 C-0.67 2.01 -0.34 1.02 0 0 Z " fill="#4AC09A" transform="translate(346,329)"/>
<path d="M0 0 C2.90314507 1.14366321 3.7113126 1.96789494 5.0625 4.8125 C5.23218264 10.15251261 4.28800279 14.4650832 1.0625 18.8125 C2.7125 19.1425 4.3625 19.4725 6.0625 19.8125 C6.0625 20.4725 6.0625 21.1325 6.0625 21.8125 C0.4525 21.4825 -5.1575 21.1525 -10.9375 20.8125 C-11.5975 19.4925 -12.2575 18.1725 -12.9375 16.8125 C-12.6075 16.4825 -12.2775 16.1525 -11.9375 15.8125 C-9.37111679 16.0342862 -6.83615086 16.39786815 -4.28515625 16.75390625 C-3.51042969 16.77324219 -2.73570312 16.79257812 -1.9375 16.8125 C1.09988769 13.77511231 1.01909849 11.44182187 1.3125 7.1875 C1.23 6.07375 1.1475 4.96 1.0625 3.8125 C0.0725 3.1525 -0.9175 2.4925 -1.9375 1.8125 C-2.2675 3.1325 -2.5975 4.4525 -2.9375 5.8125 C-3.5975 5.8125 -4.2575 5.8125 -4.9375 5.8125 C-4.5625 3.375 -4.5625 3.375 -3.9375 0.8125 C-1.9375 -0.1875 -1.9375 -0.1875 0 0 Z " fill="#4BC39D" transform="translate(762.9375,327.1875)"/>
<path d="M0 0 C1.24744086 3.5809515 0.74085387 6.01309928 -0.1796875 9.6484375 C-0.44910156 10.73640625 -0.71851563 11.824375 -0.99609375 12.9453125 C-1.28613281 14.07710937 -1.57617188 15.20890625 -1.875 16.375 C-2.43669674 18.61152765 -2.99664906 20.84849426 -3.5546875 23.0859375 C-3.80718262 24.0764209 -4.05967773 25.0669043 -4.31982422 26.08740234 C-5.01058855 29.04534151 -5.53266599 31.9993703 -6 35 C-6.33 35 -6.66 35 -7 35 C-8.78084109 24.76016375 -9.100241 14.02898457 -3.6875 4.75 C-2.52743412 3.11536172 -1.27303311 1.54828351 0 0 Z " fill="#38464B" transform="translate(307,94)"/>
<path d="M0 0 C0.99 0.33 1.98 0.66 3 1 C2.56440497 7.02210123 1.98963712 11.79253674 -2.625 16 C-6.5576964 18.97454855 -10.23862691 20.73030051 -15 22 C-17.234375 21.5625 -17.234375 21.5625 -19 21 C-18.34773437 20.64808594 -17.69546875 20.29617187 -17.0234375 19.93359375 C-7.94475089 14.80507315 -3.15089312 9.97782821 0 0 Z " fill="#253036" transform="translate(1016,173)"/>
<path d="M0 0 C0.33 0 0.66 0 1 0 C1.08156437 2.85475306 1.14076372 5.70713565 1.1875 8.5625 C1.21263672 9.36236328 1.23777344 10.16222656 1.26367188 10.98632812 C1.34086658 17.29056268 0.19234748 21.65928004 -3.3125 27 C-5 28 -5 28 -7.875 27.9375 C-11.43548003 26.86935599 -13.37822643 25.62177357 -16 23 C-16.8125 20.75 -16.8125 20.75 -17 19 C-14.75946342 20.04024912 -12.92558087 21.06046554 -11 22.625 C-8.85514888 24.37768588 -8.85514888 24.37768588 -5 24 C-3.37150031 19.64409432 -2.65881554 15.76065388 -2.375 11.125 C-2.30023438 9.97257812 -2.22546875 8.82015625 -2.1484375 7.6328125 C-2.09945313 6.76398438 -2.05046875 5.89515625 -2 5 C-1.67 5 -1.34 5 -1 5 C-0.67 3.35 -0.34 1.7 0 0 Z " fill="#48BB97" transform="translate(378,341)"/>
<path d="M0 0 C0.66 0 1.32 0 2 0 C1.50877547 8.13105861 0.64733759 16.01920915 -1 24 C-1.66 24 -2.32 24 -3 24 C-3.33 20.37 -3.66 16.74 -4 13 C-4.99 13.99 -5.98 14.98 -7 16 C-7.99 16 -8.98 16 -10 16 C-8.67015037 13.07816693 -7.17369277 10.91552242 -5 8.5625 C-2.60761082 5.85501566 -1.0629601 3.50776832 0 0 Z " fill="#4AC298" transform="translate(439,325)"/>
<path d="M0 0 C-0.78009415 9.20511096 -0.78009415 9.20511096 -4 13 C-6.625 13.875 -6.625 13.875 -9 14 C-10 13 -10 13 -10.375 10.25 C-9.87930229 5.95395321 -8.2558628 4.72583862 -5 2 C-2 0 -2 0 0 0 Z " fill="#253137" transform="translate(521,202)"/>
<path d="M0 0 C2.875 2.5 2.875 2.5 5 5 C5.66 3.68 6.32 2.36 7 1 C7 3.31 7 5.62 7 8 C4.72858891 7.88597936 2.45785448 7.75841495 0.1875 7.625 C-1.07707031 7.55539062 -2.34164063 7.48578125 -3.64453125 7.4140625 C-7 7 -7 7 -10 5 C-7.72128672 -0.04572227 -5.53761719 -0.65148438 0 0 Z " fill="#3A4B4B" transform="translate(352,339)"/>
<path d="M0 0 C0.33 0 0.66 0 1 0 C2.64955084 7.99151328 3.46782087 15.86526181 4 24 C4.18582189 26.29180335 4.37329141 28.58347377 4.5625 30.875 C4.90648103 35.26737312 5 39.5940521 5 44 C5.165 44.825 5.33 45.65 5.5 46.5 C6.13861448 49.69307239 6.06366809 52.75292759 6 56 C1.09480186 51.09480186 2.43489043 39.60284435 2 33.0625 C1.42728009 23.76001418 1.42728009 23.76001418 0.44140625 14.49609375 C0.03561654 11.28209558 -0.10293838 8.2350706 -0.0625 5 C-0.05347656 4.05125 -0.04445312 3.1025 -0.03515625 2.125 C-0.02355469 1.42375 -0.01195312 0.7225 0 0 Z " fill="#E89F7C" transform="translate(64,109)"/>
<path d="M0 0 C2.4375 1.875 2.4375 1.875 4 4 C4 4.66 4 5.32 4 6 C1.51245214 7.24377393 -0.22655301 7.13306235 -3 7.125 C-3.886875 7.12757813 -4.77375 7.13015625 -5.6875 7.1328125 C-8 7 -8 7 -10 6 C-9.625 3.5625 -9.625 3.5625 -9 1 C-5.90826248 -0.54586876 -3.40570448 -0.29359521 0 0 Z " fill="#394348" transform="translate(674,339)"/>
<path d="M0 0 C0.66 0.99 1.32 1.98 2 3 C-1.3 3 -4.6 3 -8 3 C-7.67 4.546875 -7.34 6.09375 -7 7.6875 C-6.25021703 11.20210768 -5.8963548 14.40480708 -6 18 C-6.66 18 -7.32 18 -8 18 C-10.5915262 12.06108578 -11.40368295 7.45892714 -11 1 C-7.23952955 -0.02708885 -3.91104938 -0.28970736 0 0 Z " fill="#48BC99" transform="translate(733,331)"/>
<path d="M0 0 C0 0.66 0 1.32 0 2 C-1.299375 1.979375 -2.59875 1.95875 -3.9375 1.9375 C-5.29165633 1.91600546 -6.64756083 1.92851801 -8 2 C-8.33 2.33 -8.66 2.66 -9 3 C-8.90968426 5.35694954 -8.75311872 7.71153582 -8.5625 10.0625 C-8.46066406 11.35285156 -8.35882813 12.64320313 -8.25390625 13.97265625 C-8.17011719 14.97167969 -8.08632813 15.97070312 -8 17 C-11.48127053 13.91931402 -12.26731339 10.47191482 -13 6 C-13.125 2.5 -13.125 2.5 -13 0 C-8.70336653 -1.01097258 -4.08261196 -2.04130598 0 0 Z " fill="#48BC95" transform="translate(413,332)"/>
<path d="M0 0 C0.99 0.33 1.98 0.66 3 1 C3 7.93 3 14.86 3 22 C2.01 22.33 1.02 22.66 0 23 C0 15.41 0 7.82 0 0 Z " fill="#4ABA8A" transform="translate(336,326)"/>
<path d="M0 0 C0.99 0.33 1.98 0.66 3 1 C3 7.93 3 14.86 3 22 C2.01 22.33 1.02 22.66 0 23 C0 15.41 0 7.82 0 0 Z " fill="#4ABD90" transform="translate(657,326)"/>
<path d="M0 0 C2.90314507 1.14366321 3.7113126 1.96789494 5.0625 4.8125 C5.12996783 9.47621367 4.66952617 12.90196075 2.0625 16.8125 C1.0725 16.4825 0.0825 16.1525 -0.9375 15.8125 C-0.6075 15.131875 -0.2775 14.45125 0.0625 13.75 C1.26023293 10.23165953 1.41091176 7.50566465 1.0625 3.8125 C0.0725 3.1525 -0.9175 2.4925 -1.9375 1.8125 C-2.2675 3.1325 -2.5975 4.4525 -2.9375 5.8125 C-3.5975 5.8125 -4.2575 5.8125 -4.9375 5.8125 C-4.5625 3.375 -4.5625 3.375 -3.9375 0.8125 C-1.9375 -0.1875 -1.9375 -0.1875 0 0 Z " fill="#48B893" transform="translate(762.9375,327.1875)"/>
<path d="M0 0 C0.86625 0.3403125 0.86625 0.3403125 1.75 0.6875 C2.08 2.0075 2.41 3.3275 2.75 4.6875 C0.39031256 6.78499995 -0.79616994 7.65655704 -4 7.875 C-4.7425 7.813125 -5.485 7.75125 -6.25 7.6875 C-6.5 5.375 -6.5 5.375 -6.25 2.6875 C-4.11319077 0.39806154 -3.15626895 -0.43837069 0 0 Z " fill="#39464C" transform="translate(389.25,330.3125)"/>
<path d="M0 0 C0.33 1.32 0.66 2.64 1 4 C-4.22583202 8.35486002 -7.09012671 10.31408515 -14 10 C-13.319375 9.46375 -12.63875 8.9275 -11.9375 8.375 C-9.06443777 6.05209862 -6.30205622 3.63643174 -3.55078125 1.171875 C-2 0 -2 0 0 0 Z " fill="#273439" transform="translate(451,186)"/>
<path d="M0 0 C0.99 0.33 1.98 0.66 3 1 C3 1.99 3 2.98 3 4 C1.11076602 5.01241247 -0.78669944 6.00947425 -2.6875 7 C-4.27111328 7.8353125 -4.27111328 7.8353125 -5.88671875 8.6875 C-8.92226262 9.9672274 -10.76026826 10.28851043 -14 10 C-12.32932325 6.65864649 -8.73316496 5.84530557 -5.4453125 4.31640625 C-3.16243039 3.08744256 -1.69980283 1.93057076 0 0 Z " fill="#263238" transform="translate(406,186)"/>
<path d="M0 0 C0.78375 0.04125 1.5675 0.0825 2.375 0.125 C2.705 1.775 3.035 3.425 3.375 5.125 C-0.0602048 7.41513653 -1.610331 7.30342973 -5.625 7.125 C-4.53409091 0.21590909 -4.53409091 0.21590909 0 0 Z " fill="#394148" transform="translate(709.625,330.875)"/>
<path d="M0 0 C2.75059381 -0.08107646 5.49879021 -0.14052813 8.25 -0.1875 C9.02730469 -0.21263672 9.80460937 -0.23777344 10.60546875 -0.26367188 C16.42997175 -0.33834499 16.42997175 -0.33834499 19.546875 1.51171875 C20.02640625 2.00285156 20.5059375 2.49398437 21 3 C20.39414062 2.98839844 19.78828125 2.97679688 19.1640625 2.96484375 C13.04075052 2.89890039 7.07906669 3.27568567 1 4 C1.33 3.01 1.66 2.02 2 1 C1.34 0.67 0.68 0.34 0 0 Z " fill="#37484B" transform="translate(321,83)"/>
<path d="M0 0 C0 1.32 0 2.64 0 4 C-1.72343755 4.84511824 -3.45404053 5.67563354 -5.1875 6.5 C-6.15042969 6.9640625 -7.11335938 7.428125 -8.10546875 7.90625 C-10.98922693 8.99592921 -12.95354861 9.22277524 -16 9 C-13.06698229 6.72861652 -10.04931207 4.73130058 -6.875 2.8125 C-6.00617188 2.28269531 -5.13734375 1.75289062 -4.2421875 1.20703125 C-2 0 -2 0 0 0 Z " fill="#263439" transform="translate(492,187)"/>
<path d="M0 0 C0.66 0 1.32 0 2 0 C1.50471063 6.56258412 1.50471063 6.56258412 -0.875 8.625 C-1.57625 9.07875 -2.2775 9.5325 -3 10 C-3.495 10.86625 -3.99 11.7325 -4.5 12.625 C-6 15 -6 15 -8.1875 15.8125 C-8.785625 15.874375 -9.38375 15.93625 -10 16 C-8.67015037 13.07816693 -7.17369277 10.91552242 -5 8.5625 C-2.60761082 5.85501566 -1.0629601 3.50776832 0 0 Z " fill="#47B693" transform="translate(439,325)"/>
<path d="M0 0 C0.66 0 1.32 0 2 0 C1.67497202 2.92525181 1.14220891 4.78668664 -0.5 7.25 C-4.1159875 9.78119125 -7.67177534 9.81503313 -12 10 C-10.68 9.34 -9.36 8.68 -8 8 C-8 7.34 -8 6.68 -8 6 C-7.05125 5.566875 -6.1025 5.13375 -5.125 4.6875 C-1.79958063 3.20697799 -1.79958063 3.20697799 0 0 Z " fill="#38484C" transform="translate(986,169)"/>
<path d="M0 0 C0.99 0.99 1.98 1.98 3 3 C-1.74963401 6.68096635 -5.00708997 7.58669586 -11 8 C-9.66566859 5.33133717 -8.11620897 4.82425634 -5.5 3.4375 C-2.55848713 1.98363365 -2.55848713 1.98363365 0 0 Z " fill="#273338" transform="translate(961,188)"/>
<path d="M0 0 C0.33 0 0.66 0 1 0 C1 5.94 1 11.88 1 18 C0.01 18.33 -0.98 18.66 -2 19 C-2 14.38 -2 9.76 -2 5 C-1.67 5 -1.34 5 -1 5 C-0.67 3.35 -0.34 1.7 0 0 Z " fill="#45A27B" transform="translate(378,341)"/>
<path d="M0 0 C2.35694954 0.09031574 4.71153582 0.24688128 7.0625 0.4375 C8.35285156 0.53933594 9.64320313 0.64117187 10.97265625 0.74609375 C12.47119141 0.87177734 12.47119141 0.87177734 14 1 C13.67 1.66 13.34 2.32 13 3 C9.26274081 4.24575306 5.91147543 4.48893443 2 4 C0 2.5 0 2.5 -1 1 C-0.67 0.67 -0.34 0.34 0 0 Z " fill="#4ABE98" transform="translate(706,345)"/>
<path d="M0 0 C-0.33 0.99 -0.66 1.98 -1 3 C-5.29 3.66 -9.58 4.32 -14 5 C-14.33 5.99 -14.66 6.98 -15 8 C-15 6.68 -15 5.36 -15 4 C-13.44219668 3.32243118 -11.87849904 2.65840543 -10.3125 2 C-9.44238281 1.62875 -8.57226562 1.2575 -7.67578125 0.875 C-4.9427998 -0.01870488 -2.85299066 -0.16449676 0 0 Z " fill="#2B3E41" transform="translate(323,84)"/>
<path d="M0 0 C0 0.66 0 1.32 0 2 C-1.43739513 2.02712066 -2.87493863 2.04645067 -4.3125 2.0625 C-5.51326172 2.07990234 -5.51326172 2.07990234 -6.73828125 2.09765625 C-9 2 -9 2 -12 1 C-12 2.65 -12 4.3 -12 6 C-12.33 6 -12.66 6 -13 6 C-13 4.02 -13 2.04 -13 0 C-8.70336653 -1.01097258 -4.08261196 -2.04130598 0 0 Z " fill="#46B295" transform="translate(413,332)"/>
<path d="M0 0 C0.66 0.33 1.32 0.66 2 1 C-1.96 4.96 -5.92 8.92 -10 13 C-10 8.83248505 -7.76127698 6.85829482 -5 4 C-3.36927384 2.62294236 -1.7133562 1.27277889 0 0 Z " fill="#4BBA97" transform="translate(428,115)"/>
<path d="M0 0 C0.33 0 0.66 0 1 0 C3.29612756 9.41002278 3.29612756 9.41002278 3 14 C2.34 14 1.68 14 1 14 C-1.20808081 8.80451575 -0.93402724 5.41735797 0 0 Z " fill="#49B788" transform="translate(724,335)"/>
<path d="M0 0 C0.66 0.33 1.32 0.66 2 1 C1.67372714 4.01802393 1.38918764 5.59691281 -0.75 7.8125 C-3.37152557 9.19608294 -5.07674878 9.24360427 -8 9 C-5.702779 7.25728062 -3.40133271 5.60088848 -1 4 C-0.27617533 1.94074861 -0.27617533 1.94074861 0 0 Z " fill="#4BC194" transform="translate(714,331)"/>
<path d="M0 0 C0.66 0 1.32 0 2 0 C2.39063507 1.43333021 2.76198474 2.87192679 3.125 4.3125 C3.33382813 5.11300781 3.54265625 5.91351563 3.7578125 6.73828125 C4 9 4 9 2 12 C0.00214565 7.8794254 -0.17835515 4.54805635 0 0 Z " fill="#45AF90" transform="translate(360,332)"/>
<path d="M0 0 C0.33 0.99 0.66 1.98 1 3 C1.66 3 2.32 3 3 3 C3.33 2.01 3.66 1.02 4 0 C3.40049704 3.68266103 2.75241109 7.34543185 2 11 C1.34 10.01 0.68 9.02 0 8 C-0.99 8.495 -0.99 8.495 -2 9 C-1.34 6.03 -0.68 3.06 0 0 Z " fill="#2C4D4A" transform="translate(371,111)"/>
<path d="M0 0 C3.875 1.875 3.875 1.875 5 3 C5.25 5.9375 5.25 5.9375 5 9 C4.01 9.66 3.02 10.32 2 11 C2.04125 9.9275 2.0825 8.855 2.125 7.75 C2.0114175 4.34252515 1.78726636 2.79260369 0 0 Z " fill="#4BC89F" transform="translate(650,328)"/>
<path d="M0 0 C0.99 0.33 1.98 0.66 3 1 C1.71278701 5.8270487 1.21436527 6.83922605 -3 10 C-2.01 6.7 -1.02 3.4 0 0 Z " fill="#2C4E4B" transform="translate(1016,173)"/>
<path d="M0 0 C-0.33 0.66 -0.66 1.32 -1 2 C-3.28515625 2.4140625 -3.28515625 2.4140625 -6.0625 2.625 C-6.98160156 2.69976562 -7.90070313 2.77453125 -8.84765625 2.8515625 C-9.55792969 2.90054687 -10.26820313 2.94953125 -11 3 C-11 2.34 -11 1.68 -11 1 C-7.26562152 0.12132271 -3.83225427 -0.08912219 0 0 Z " fill="#4DC9A0" transform="translate(358,346)"/>
<path d="M0 0 C0.33 0.99 0.66 1.98 1 3 C2.98 3 4.96 3 7 3 C7 3.66 7 4.32 7 5 C4.69 5.66 2.38 6.32 0 7 C0 4.69 0 2.38 0 0 Z " fill="#48AD82" transform="translate(382,335)"/>
<path d="M0 0 C0.33 0 0.66 0 1 0 C1 4.29 1 8.58 1 13 C0.01 12.01 -0.98 11.02 -2 10 C-1.85546875 7.51953125 -1.85546875 7.51953125 -1.1875 4.8125 C-0.97480469 3.91144531 -0.76210938 3.01039063 -0.54296875 2.08203125 C-0.36378906 1.39496094 -0.18460938 0.70789063 0 0 Z " fill="#385151" transform="translate(987,149)"/>
<path d="M0 0 C-3.00617269 3.00617269 -5.82381598 2.59585316 -10 3 C-10.33 2.34 -10.66 1.68 -11 1 C-7.32589215 -0.17571451 -3.83070817 -0.07366746 0 0 Z " fill="#4DC99F" transform="translate(680,346)"/>
<path d="M0 0 C0.99 0 1.98 0 3 0 C2.67 2.97 2.34 5.94 2 9 C1.34 8.67 0.68 8.34 0 8 C0 5.36 0 2.72 0 0 Z " fill="#4CC89D" transform="translate(401,333)"/>
<path d="M0 0 C0.66 0.66 1.32 1.32 2 2 C1.625 4.625 1.625 4.625 1 7 C0.34 7 -0.32 7 -1 7 C-1.04254356 5.00045254 -1.04080783 2.99958364 -1 1 C-0.67 0.67 -0.34 0.34 0 0 Z " fill="#44A387" transform="translate(697,331)"/>
<path d="M0 0 C0.33 0.66 0.66 1.32 1 2 C0.06421005 4.35981813 -0.93347808 6.69631264 -2 9 C-2.33 9 -2.66 9 -3 9 C-2.25 2.25 -2.25 2.25 0 0 Z " fill="#374348" transform="translate(520,205)"/>
<path d="M0 0 C0.33 0.66 0.66 1.32 1 2 C1.66 2.33 2.32 2.66 3 3 C2.34 4.32 1.68 5.64 1 7 C0.01 7 -0.98 7 -2 7 C-1.34 4.69 -0.68 2.38 0 0 Z " fill="#2E524D" transform="translate(851,82)"/>
</svg>
